<?xml version="1.0" encoding="UTF-8" standalone="no"?>
<!-- Created with Inkscape (http://www.inkscape.org/) -->

<svg
   xmlns:dc="http://purl.org/dc/elements/1.1/"
   xmlns:cc="http://creativecommons.org/ns#"
   xmlns:rdf="http://www.w3.org/1999/02/22-rdf-syntax-ns#"
   xmlns:svg="http://www.w3.org/2000/svg"
   xmlns="http://www.w3.org/2000/svg"
   xmlns:sodipodi="http://sodipodi.sourceforge.net/DTD/sodipodi-0.dtd"
   xmlns:inkscape="http://www.inkscape.org/namespaces/inkscape"
   width="210mm"
   height="297mm"
   viewBox="0 0 210 297"
   version="1.1"
   id="svg996"
   inkscape:version="0.92.3 (2405546, 2018-03-11)"
   sodipodi:docname="TableScanv2.svg">
  <sodipodi:namedview
     id="base"
     pagecolor="#ffffff"
     bordercolor="#666666"
     borderopacity="1.0"
     inkscape:pageopacity="0.0"
     inkscape:pageshadow="2"
     inkscape:zoom="0.5"
     inkscape:cx="565.88683"
     inkscape:cy="688.61518"
     inkscape:document-units="mm"
     inkscape:current-layer="layer1"
     showgrid="false"
     inkscape:window-width="1853"
     inkscape:window-height="1025"
     inkscape:window-x="67"
     inkscape:window-y="27"
     inkscape:window-maximized="1" />
  <defs
     id="defs990" />
  <metadata
     id="metadata993">
    <rdf:RDF>
      <cc:Work
         rdf:about="">
        <dc:format>image/svg+xml</dc:format>
        <dc:type
           rdf:resource="http://purl.org/dc/dcmitype/StillImage" />
        <dc:title></dc:title>
      </cc:Work>
    </rdf:RDF>
  </metadata>
  <g
     inkscape:label="Calque 1"
     inkscape:groupmode="layer"
     id="layer1">
    <path
       id="TableTournante_bottom"
       d="m -70.327493,160.82899 v 8.05016 h 3.000335 v 7.90029 h -3.000335 v 8.09977 h 3.000335 v 7.89977 h -3.000335 v 8.10028 h 3.000335 v 7.89978 h -3.000335 v 8.10028 h 3.000335 v 7.89977 h -3.000335 v 8.10029 h 3.000335 v 7.89977 h -3.000335 v 8.10028 h 3.000335 v 7.89978 h -3.000335 v 8.09976 h 3.000335 v 7.90029 h -3.000335 v 8.09976 h 3.000335 v 7.9003 h -3.000335 v 8.09977 h 3.000335 v 7.9003 h -3.000335 v 8.09976 h 3.000335 v 7.90028 h -3.000335 v 8.09977 h 3.000335 v 7.89977 h -3.000335 v 8.10029 h 3.000335 v 7.89978 h -3.000335 v 8.05015 h 8.050154 v -2.99981 h 7.899778 v 2.99981 h 8.10028 v -2.99981 h 7.899775 v 2.99981 h 8.100281 v -2.99981 h 7.899776 v 2.99981 h 8.100282 v -2.99981 h 7.8997782 v 2.99981 h 8.099764 v -2.99981 h 7.9002901 v 2.99981 h 8.0997637 v -2.99981 h 7.900294 v 2.99981 h 8.099763 v -2.99981 h 7.900292 v 2.99981 h 8.099763 v -2.99981 h 7.900294 v 2.99981 h 8.099764 v -2.99981 h 7.899776 v 2.99981 h 8.100282 v -2.99981 h 7.899775 v 2.99981 h 8.100263 v -2.99981 h 7.899765 v 2.99981 h 8.10028 v -2.99981 h 7.89978 v 2.99981 h 8.05015 v -8.05015 h -3.00033 v -7.89978 h 3.00033 v -8.10029 h -3.00033 v -7.89977 h 3.00033 v -8.09977 h -3.00033 v -7.90028 h 3.00033 v -8.09976 h -3.00033 v -7.9003 h 3.00033 v -8.09977 h -3.00033 v -7.9003 h 3.00033 v -8.09976 h -3.00033 v -7.90029 h 3.00033 v -8.09976 h -3.00033 v -7.89978 h 3.00033 v -8.10028 h -3.00033 v -7.89977 h 3.00033 v -8.10029 h -3.00033 v -7.89977 h 3.00033 v -8.10028 h -3.00033 v -7.89978 h 3.00033 v -8.10028 h -3.00033 v -7.89977 h 3.00033 v -8.09977 h -3.00033 v -7.90029 h 3.00033 v -8.05016 h -8.05015 v 3.00034 h -7.89978 v -3.00034 h -8.10028 v 3.00034 h -7.899765 v -3.00034 h -8.100263 v 3.00034 h -7.899775 v -3.00034 h -8.100282 v 3.00034 h -7.899776 v -3.00034 h -8.099764 v 3.00034 h -7.900294 v -3.00034 h -8.099763 v 3.00034 h -7.900292 v -3.00034 h -8.099763 v 3.00034 h -7.900294 v -3.00034 H 9.6226653 v 3.00034 H 1.7223752 v -3.00034 h -8.099764 v 3.00034 h -7.8997782 v -3.00034 h -8.100282 v 3.00034 h -7.899776 v -3.00034 h -8.100281 v 3.00034 h -7.899775 v -3.00034 h -8.10028 v 3.00034 h -7.899778 v -3.00034 z m 100.000097,82.1831 a 14.249999,14.249999 0 0 1 14.250292,14.25029 14.249999,14.249999 0 0 1 -5.00021,10.81743 V 278.6466 H 20.422522 V 268.09583 A 14.249999,14.249999 0 0 1 15.422828,257.26238 14.249999,14.249999 0 0 1 29.672604,243.01209 Z M 12.17238,255.16225 a 2.0999998,2.0999998 0 0 1 2.10013,2.10013 2.0999998,2.0999998 0 0 1 -2.10013,2.09962 2.0999998,2.0999998 0 0 1 -2.099613,-2.09962 2.0999998,2.0999998 0 0 1 2.099613,-2.10013 z m 35.000448,0 a 2.0999999,2.0999999 0 0 1 2.099612,2.10013 2.0999999,2.0999999 0 0 1 -2.099612,2.09962 2.0999999,2.0999999 0 0 1 -2.10013,-2.09962 2.0999999,2.0999999 0 0 1 2.10013,-2.10013 z"
       style="fill:none;stroke:#ff0000;stroke-width:0.1;stroke-miterlimit:4;stroke-dasharray:none"
       inkscape:connector-curvature="0"
       inkscape:label="TableTournante_dessus" />
    <path
       inkscape:connector-curvature="0"
       id="TableTournante_top"
       d="m 335.31853,161.88734 h -8.05015 v 3.00034 h -7.9003 v -3.00034 h -8.09976 v 3.00034 h -7.89977 v -3.00034 h -8.10029 v 3.00034 h -7.89977 v -3.00034 h -8.10028 v 3.00034 h -7.89978 v -3.00034 h -8.10028 v 3.00034 h -7.89978 v -3.00034 h -8.10027 v 3.00034 h -7.89978 v -3.00034 h -8.09977 v 3.00034 h -7.90029 v -3.00034 h -8.09975 v 3.00034 h -7.9003 v -3.00034 h -8.09977 v 3.00034 h -7.9003 v -3.00034 h -8.09977 v 3.00034 h -7.90027 v -3.00034 h -8.09977 v 3.00034 h -7.89977 v -3.00034 h -8.1003 v 3.00034 h -7.89977 v -3.00034 h -8.05016 v 8.05016 h 2.99982 v 7.89977 h -2.99982 v 8.10028 h 2.99982 v 7.89978 h -2.99982 v 8.10028 h 2.99982 v 7.89978 h -2.99982 v 8.10028 h 2.99982 v 7.89977 h -2.99982 v 8.09977 h 2.99982 v 7.90029 h -2.99982 v 8.09976 h 2.99982 v 7.9003 h -2.99982 v 8.09976 h 2.99982 v 7.90029 h -2.99982 v 8.09977 h 2.99982 v 7.90028 h -2.99982 v 8.09977 h 2.99982 v 7.89979 h -2.99982 v 8.10027 h 2.99982 v 7.89977 h -2.99982 v 8.10028 h 2.99982 v 7.89979 h -2.99982 v 8.10027 h 2.99982 v 7.89977 h -2.99982 v 8.05016 h 8.05016 v -3.00032 h 7.89977 v 3.00032 h 8.1003 v -3.00032 h 7.89977 v 3.00032 h 8.09977 v -3.00032 h 7.90027 v 3.00032 h 8.09977 v -3.00032 h 7.9003 v 3.00032 h 8.09977 v -3.00032 h 7.9003 v 3.00032 h 8.09975 v -3.00032 h 7.90029 v 3.00032 h 8.09977 v -3.00032 h 7.89978 v 3.00032 h 8.10027 v -3.00032 h 7.89978 v 3.00032 h 8.10028 v -3.00032 h 7.89978 v 3.00032 h 8.10028 v -3.00032 h 7.89977 v 3.00032 h 8.10029 v -3.00032 h 7.89977 v 3.00032 h 8.09976 v -3.00032 h 7.9003 v 3.00032 h 8.05015 v -8.05016 h -3.00033 v -7.89977 h 3.00033 v -8.10027 h -3.00033 v -7.89979 h 3.00033 v -8.10028 h -3.00033 v -7.89977 h 3.00033 v -8.10027 h -3.00033 v -7.89979 h 3.00033 v -8.09977 h -3.00033 v -7.90028 h 3.00033 v -8.09977 h -3.00033 v -7.90029 h 3.00033 v -8.09976 h -3.00033 v -7.9003 h 3.00033 v -8.09976 h -3.00033 v -7.90029 h 3.00033 v -8.09977 h -3.00033 v -7.89977 h 3.00033 v -8.10028 h -3.00033 v -7.89978 h 3.00033 v -8.10028 h -3.00033 v -7.89978 h 3.00033 v -8.10028 h -3.00033 v -7.89977 h 3.00033 z M 293.35158,352.454 a 1.6,1.6 0 0 1 -1.5999,1.60041 1.6,1.6 0 0 1 -1.5999,-1.60041 1.6,1.6 0 0 1 1.5999,-1.59991 1.6,1.6 0 0 1 1.5999,1.59991 z m -8.99996,0 a 1.6,1.6 0 0 1 -1.59991,1.60041 1.6,1.6 0 0 1 -1.5999,-1.60041 1.6,1.6 0 0 1 1.5999,-1.59991 1.6,1.6 0 0 1 1.59991,1.59991 z"
       style="fill:none;stroke:#ff0000;stroke-width:0.1;stroke-miterlimit:4;stroke-dasharray:none"
       inkscape:label="TableTournante_dessous" />
    <g
       id="g835"
       transform="translate(-93.662507,16.933338)">
      <circle
         inkscape:label="PlateauTournant"
         style="opacity:1;fill:none;fill-opacity:1;stroke:#ff0000;stroke-width:0.09313428;stroke-miterlimit:4;stroke-dasharray:none;stroke-opacity:1"
         id="path1613"
         cx="122.67858"
         cy="38.249985"
         r="100" />
      <g
         inkscape:label="Mire"
         id="g1623"
         transform="matrix(18,0,0,18,-2073.0268,-584.51771)"
         style="stroke:#ff00ff;stroke-width:0.00666667;stroke-miterlimit:4;stroke-dasharray:none">
        <path
           inkscape:connector-curvature="0"
           id="path1617"
           d="m 121.98363,29.598205 v 10"
           style="fill:none;stroke:#ff00ff;stroke-width:0.00666667;stroke-linecap:butt;stroke-linejoin:miter;stroke-miterlimit:4;stroke-dasharray:none;stroke-opacity:1" />
        <path
           style="fill:none;stroke:#ff00ff;stroke-width:0.00666667;stroke-linecap:butt;stroke-linejoin:miter;stroke-miterlimit:4;stroke-dasharray:none;stroke-opacity:1"
           d="m 126.98363,34.598205 h -10"
           id="path1619"
           inkscape:connector-curvature="0" />
      </g>
    </g>
    <path
       style="fill:none;stroke:#ff0000;stroke-width:0.37795275;stroke-miterlimit:4;stroke-dasharray:none"
       d="m 540.35938,1378.8652 v 11.3399 H 510.3125 v 35.4629 h 11.33789 v 34.8984 H 510.3125 v 35.6543 h 11.33789 v 34.8965 H 510.3125 v 35.6543 h 11.33789 v 34.8965 H 510.3125 v 35.6543 h 11.33789 v 34.8984 H 510.3125 v 35.4629 h 30.04688 v 11.3398 h 30.61328 v -11.3398 h 29.85937 v 11.3398 h 30.61328 v -11.3398 h 29.85938 v 11.3398 h 30.61328 v -11.3398 h 29.85937 v 11.3398 h 30.61328 v -11.3398 h 29.85743 v 11.3398 h 30.61523 v -11.3398 h 29.85742 v 11.3398 h 30.61524 v -11.3398 h 29.85742 v 11.3398 h 30.61523 v -11.3398 h 29.85743 v 11.3398 h 30.61523 v -11.3398 h 29.85745 v 11.3398 h 30.6133 v -11.3398 h 29.8593 v 11.3398 h 30.6133 v -11.3398 h 29.8594 v 11.3398 h 30.6133 v -11.3398 h 29.8593 v 11.3398 h 30.6133 v -11.3398 h 30.0469 v -35.4629 h -11.3379 v -34.8984 h 11.3379 v -35.6543 h -11.3379 v -34.8965 h 11.3379 v -35.6543 h -11.3379 v -34.8965 h 11.3379 v -35.6543 h -11.3379 v -34.8984 h 11.3379 v -35.4629 h -30.0469 v -11.3399 h -30.6133 v 11.3399 h -29.8593 v -11.3399 h -30.6133 v 11.3399 h -29.8594 v -11.3399 h -30.6133 v 11.3399 h -29.8593 v -11.3399 h -30.6133 v 11.3399 h -29.85745 v -11.3399 h -30.61523 v 11.3399 h -29.85743 v -11.3399 h -30.61523 v 11.3399 h -29.85742 v -11.3399 H 842.7207 v 11.3399 h -29.85742 v -11.3399 h -30.61523 v 11.3399 h -29.85743 v -11.3399 h -30.61328 v 11.3399 h -29.85937 v -11.3399 h -30.61328 v 11.3399 h -29.85938 v -11.3399 h -30.61328 v 11.3399 h -29.85937 v -11.3399 z m 514.64452,39.0078 h 60.4727 v 9.4493 h -11.3399 v 13.2285 h -37.7949 v -13.2285 h -11.3379 z"
       transform="scale(0.26458333)"
       id="path847"
       inkscape:connector-curvature="0" />
    <path
       style="fill:none;stroke:#ff0000;stroke-width:0.1;stroke-miterlimit:4;stroke-dasharray:none"
       id="path849"
       d="m -70.625853,367.82481 h 7.95 v -3 h 8.1 v 3 h 7.9 v -3 h 8.1 v 3 h 7.9 v -3 h 8.1 v 3 h 7.9 v -3 h 8.0999996 v 3 h 7.9 v -3 h 8.1 v 3 h 7.9000004 v -3 h 8.1 v 3 h 7.9 v -3 h 8.1 v 3 h 7.9 v -3 h 8.1 v 3 h 7.9 v -3 h 8.1 v 3 h 7.9 v -3 h 8.1 v 3 h 7.9 v -3 h 8.100003 v 3 h 7.9 v -3 h 8.1 v 3 h 7.95 v 9.38334 h -3 v 9.23333 h 3 v 9.43333 h -3 v 9.23334 h 3 v 9.43333 h -3 v 9.23333 h 3 v 9.43334 h -3 v 9.23333 h 3 v 9.38333 h -7.95 v 3 h -8.1 v -3 h -7.9 v 3 h -8.100003 v -3 h -7.9 v 3 h -8.1 v -3 h -7.9 v 3 h -8.1 v -3 h -7.9 v 3 h -8.1 v -3 h -7.9 v 3 h -8.1 v -3 h -7.9 v 3 h -8.1 v -3 H 9.4241466 v 3 h -8.1 v -3 h -7.9 v 3 h -8.0999996 v -3 h -7.9 v 3 h -8.1 v -3 h -7.9 v 3 h -8.1 v -3 h -7.9 v 3 h -8.1 v -3 h -7.95 v -9.38333 h 3 v -9.23333 h -3 v -9.43334 h 3 v -9.23333 h -3 v -9.43333 h 3 v -9.23334 h -3 v -9.43333 h 3 v -9.23333 h -3 z"
       inkscape:connector-curvature="0"
       inkscape:label="TableTournante_Avant" />
    <path
       style="fill:none;stroke:#ff0000;stroke-width:0.1;stroke-miterlimit:4;stroke-dasharray:none"
       id="path851"
       d="m 224.63244,-40.792052 v 4.949997 h 3 v 8.099994 h -3 v 7.899997 h 3 v 8.099994 h -3 v 7.8999961 h 3 v 8.0999917 h -3 v 7.8999962 h 3 v 8.099996 h -3 v 7.899997 h 3 v 8.099994 h -3 v 7.899997 h 3 v 8.099994 h -3 v 7.899997 h 3 v 8.099994 h -3 v 7.899997 h 3 v 8.099994 h -3 v 7.899997 h 3 v 8.099989 h -3 v 7.90002 h 3 v 8.1 h -3 v 7.9 h 3 v 8.1 h -3 v 7.9 h 3 v 8.1 h -3 v 4.95 h -9.28334 v 3 h -9.43333 v -3 h -9.23333 v 3 h -9.43334 v -3 h -9.23333 v 3 h -9.43333 v -3 h -9.23334 v 3 h -9.43333 v -3 h -9.28333 v -4.95 h -3 v -8.1 h 3 v -7.9 h -3 v -8.1 h 3 v -7.9 h -3 v -8.1 h 3 v -7.90002 h -3 v -8.099989 h 3 v -7.899997 h -3 V 76.15788 h 3 v -7.899997 h -3 v -8.099994 h 3 v -7.899997 h -3 v -8.099994 h 3 v -7.899997 h -3 v -8.099994 h 3 V 20.25791 h -3 v -8.099996 h 3 V 4.2579178 h -3 v -8.0999917 h 3 V -11.74207 h -3 v -8.099994 h 3 v -7.899997 h -3 v -8.099994 h 3 v -4.949997 h 9.28333 v -3 h 9.43333 v 3 h 9.23334 v -3 h 9.43333 v 3 h 9.23333 v -3 h 9.43334 v 3 h 9.23333 v -3 h 9.43333 v 3 z"
       inkscape:connector-curvature="0"
       inkscape:label="TableTournante_Droite" />
    <path
       style="fill:none;stroke:#ff0000;stroke-width:0.1;stroke-miterlimit:4;stroke-dasharray:none"
       id="path853"
       d="m 320.08262,-38.675387 v 4.949997 h 3 v 8.099994 h -3 v 7.899997 h 3 v 8.0999937 h -3 v 7.8999967 h 3 v 8.0999934 h -3 v 7.8999962 h 3 v 8.099994 h -3 v 7.899997 h 3 v 8.099994 h -3 v 7.899997 h 3 v 8.099994 h -3 v 7.899997 h 3 v 8.099994 h -3 v 7.899997 h 3 v 8.099994 h -3 v 7.899997 h 3 v 8.099994 h -3 v 7.9 h 3 v 8.1 h -3 v 7.9 h 3 v 8.1 h -3 v 7.9 h 3 v 8.1 h -3 v 4.95 h -9.28335 v 3 h -9.43333 v -3 h -9.23334 v 3 h -9.43334 v -3 h -9.23334 v 3 h -9.43333 v -3 h -9.23335 v 3 h -9.43333 v -3 h -9.28334 v -4.95 h -3 v -8.1 h 3 v -7.9 h -3 v -8.1 h 3 v -7.9 h -3 v -8.1 h 3 v -7.9 h -3 v -8.099994 h 3 v -7.899997 h -3 v -8.099994 h 3 v -7.899997 h -3 v -8.099994 h 3 v -7.899997 h -3 v -8.099994 h 3 v -7.899997 h -3 v -8.099994 h 3 v -7.899997 h -3 v -8.099994 h 3 V 6.3745848 h -3 v -8.0999934 h 3 v -7.8999967 h -3 v -8.0999937 h 3 v -7.899997 h -3 v -8.099994 h 3 v -4.949997 h 9.28334 v -3 h 9.43333 v 3 h 9.23335 v -3 h 9.43333 v 3 h 9.23334 v -3 h 9.43334 v 3 h 9.23334 v -3 h 9.43333 v 3 z"
       inkscape:connector-curvature="0"
       inkscape:label="TableTournante_Gauche" />
    <path
       inkscape:connector-curvature="0"
       id="path925"
       d="m -1.6810317,441.78704 c -0.238136,-0.11562 -0.693254,-0.49478 -1.011374,-0.84258 -0.514922,-0.56296 -0.587486,-0.72091 -0.661205,-1.43927 -0.04554,-0.4438 -0.06495,-14.13891 -0.04313,-30.43357 l 0.03968,-29.62665 0.403471,-0.49 c 0.221909,-0.2695 0.627796,-0.66847 0.901972,-0.8866 l 0.498502,-0.3966 H 29.39847 60.350051 l 0.49851,0.3966 c 0.27417,0.21813 0.68006,0.61711 0.90197,0.88661 l 0.40347,0.49001 v 30.35963 30.35963 l -0.40347,0.49001 c -0.22191,0.26951 -0.6278,0.66849 -0.90197,0.88662 l -0.49849,0.39659 -30.799063,0.0299 c -28.1822757,0.0274 -30.8358487,0.012 -31.2320367,-0.18032 z m 61.1617227,-0.82703 c 0.6557,-0.179 1.27346,-0.71039 1.56876,-1.3494 0.23244,-0.503 0.24209,-1.67608 0.24487,-29.77776 0.003,-26.11572 -0.019,-29.30561 -0.20112,-29.73407 -0.27215,-0.64026 -0.67373,-1.05044 -1.31184,-1.33993 -0.50769,-0.23032 -1.63505,-0.2392 -30.382894,-0.2392 -28.74784474,0 -29.87520974,0.009 -30.38289774,0.2392 -0.63810296,0.28949 -1.03968696,0.69967 -1.31183796,1.33993 -0.182125,0.42846 -0.2037,3.61835 -0.201116,29.73407 0.0028,28.16447 0.01196,29.27343 0.246237,29.7724 0.133839,0.28505 0.393834,0.65443 0.577767,0.82085 0.76704696,0.69399 -0.943479,0.65742 31.0059407,0.66277 20.011799,0.003 29.817361,-0.0386 30.148131,-0.12886 z m -18.566419,-5.57726 c -0.697971,-0.19884 -1.669442,-0.93023 -2.049872,-1.54327 -1.00635,-1.6217 -1.015418,-4.21611 -0.02016,-5.76683 1.267608,-1.97506 4.537724,-2.30921 6.284021,-0.64211 0.783834,0.74828 1.17012,1.70716 1.243536,3.08681 0.132911,2.49772 -0.890608,4.25277 -2.811564,4.82105 -0.692602,0.20489 -2.005219,0.22689 -2.645965,0.0443 z m 2.73346,-1.5758 c 0.258832,-0.16855 0.604969,-0.5924 0.820031,-1.00415 0.348062,-0.66638 0.369249,-0.79646 0.327357,-2.00995 -0.0391,-1.13271 -0.09031,-1.3738 -0.403238,-1.89868 -0.657547,-1.10291 -2.17955,-1.47997 -3.40424,-0.84337 -0.435739,0.2265 -0.672197,0.47506 -0.955225,1.00415 -0.354734,0.66312 -0.373443,0.77769 -0.328733,2.01319 0.04292,1.18619 0.08455,1.36866 0.440194,1.92983 0.520607,0.82145 1.07453,1.10064 2.183668,1.10064 0.684207,0 0.968878,-0.0629 1.320186,-0.29166 z m -39.0740481,1.50096 c -0.04833,-0.0475 -0.08788,-2.02878 -0.08788,-4.40284 v -4.31646 l 0.348044,-0.0859 c 0.191423,-0.0472 0.502832,-0.0324 0.692018,0.0329 l 0.343975,0.11881 0.06591,3.68967 0.06591,3.68966 1.919987,0.0357 1.919987,0.0357 0.123114,0.33713 c 0.1073611,0.29399 0.3166521,-0.17157 1.6354991,-3.63809 0.831811,-2.18637 1.549882,-4.03486 1.595713,-4.10776 0.124957,-0.19874 1.100207,-0.29134 1.401126,-0.13304 0.257106,0.13526 0.387846,0.45566 2.671934,6.54808 0.370886,0.98927 0.655856,1.89301 0.633269,2.0083 -0.03127,0.15958 -0.197446,0.20962 -0.696126,0.20962 h -0.655058 l -0.451549,-1.20222 -0.451548,-1.20222 -1.656179,0.0361 -1.656177,0.0361 -0.398925,1.03654 c -0.219406,0.5701 -0.44691,1.10942 -0.505562,1.1985 -0.13099,0.19895 -1.17073,0.21499 -1.36797,0.0211 -0.1031891,-0.10144 -0.1680881,-0.10144 -0.2318611,0 -0.09748,0.15503 -5.102588,0.20689 -5.25765,0.0545 z M 15.06953,431.53965 c 0.07664,-0.13732 -0.992158,-3.01246 -1.119844,-3.01246 -0.05783,0 -0.105442,0.0729 -0.105796,0.16196 -3.95e-4,0.0891 -0.207957,0.70922 -0.461345,1.3781 -0.253387,0.66887 -0.460704,1.29566 -0.460704,1.39285 0,0.13441 0.250592,0.17672 1.046725,0.17672 0.575698,0 1.071132,-0.0437 1.100964,-0.0972 z m 3.580172,3.69163 c -0.035,-0.0897 -0.04797,-2.05608 -0.02882,-4.36984 l 0.03482,-4.20683 0.342504,-0.11836 c 0.188377,-0.0651 0.545536,-0.0809 0.793687,-0.0351 0.429438,0.0792 0.539205,0.23306 2.277452,3.19252 1.004448,1.71012 1.878093,3.10931 1.941433,3.10931 0.06334,0 0.115164,-1.39822 0.115164,-3.10716 v -3.10716 l 0.329532,-0.0813 c 0.181243,-0.0447 0.478609,-0.0445 0.660815,3.9e-4 l 0.331283,0.0817 -0.0347,4.37002 -0.0347,4.37006 -0.744549,0.0385 c -0.897122,0.0464 -0.652106,0.34297 -2.889825,-3.49846 l -1.638146,-2.81216 -0.06591,3.00651 c -0.03625,1.65358 -0.113895,3.07939 -0.172546,3.16847 -0.139846,0.2124 -1.134505,0.21154 -1.217496,-0.001 z m 8.402494,0.008 c -0.116489,-0.1145 -0.158176,-1.25723 -0.158176,-4.33597 0,-4.00051 0.01098,-4.18626 0.254961,-4.31461 0.281469,-0.14807 0.927214,-0.17727 1.24761,-0.0564 0.113301,0.0427 1.052376,1.51179 2.086835,3.26456 l 1.880834,3.18686 0.03416,-3.1026 c 0.03695,-3.35613 0.05282,-3.42653 0.772501,-3.42653 0.696522,0 0.709193,0.0796 0.709193,4.45459 0,3.08458 -0.04015,4.10134 -0.168769,4.27425 -0.132049,0.17751 -0.322356,0.21813 -0.874682,0.18672 l -0.705914,-0.0401 -1.797921,-3.06977 c -0.988855,-1.68838 -1.840881,-3.11201 -1.893391,-3.16362 -0.05251,-0.0516 -0.09547,1.27439 -0.09547,2.94668 0,2.1921 -0.04414,3.08392 -0.158176,3.19601 -0.087,0.0855 -0.342054,0.15548 -0.566796,0.15548 -0.224741,0 -0.479799,-0.07 -0.566795,-0.15548 z m 8.40916,-0.16975 c -0.14131,-0.36535 -0.184107,-7.69543 -0.04785,-8.19528 0.09506,-0.34871 0.602009,-0.50614 1.088416,-0.33799 l 0.343976,0.11891 v 4.3374 4.33741 l -0.626621,0.0395 c -0.571434,0.036 -0.638184,0.01 -0.757925,-0.29996 z m 12.075502,0.12028 c -0.04401,-0.11272 -0.08001,-2.0639 -0.08001,-4.33596 0,-3.95161 0.01107,-4.13685 0.25496,-4.26515 0.301919,-0.15883 1.05918,-0.17376 1.296717,-0.0256 0.0922,0.0575 0.972055,1.47054 1.955227,3.14004 0.983174,1.6695 1.84196,3.09084 1.908415,3.15854 0.07335,0.0747 0.120827,-1.13356 0.120827,-3.07477 v -3.19786 l 0.329532,-0.0813 c 0.181243,-0.0447 0.478609,-0.0445 0.660814,3.9e-4 l 0.331283,0.0817 -0.0347,4.37002 -0.0347,4.37006 H 53.462482 52.67974 l -1.853518,-3.14887 -1.853519,-3.14887 -0.03544,3.00897 c -0.02301,1.95407 -0.08644,3.06937 -0.180905,3.18126 -0.209521,0.24816 -1.119384,0.22379 -1.219497,-0.0327 z m -13.759745,-13.4961 c -0.0521,-0.12429 -1.281761,-3.66635 -2.732586,-7.87125 l -2.637863,-7.64527 -4.892505,-0.034 -4.892505,-0.034 -0.89147,2.56053 c -0.490308,1.40829 -0.998325,2.80833 -1.128925,3.11119 l -0.237456,0.55067 h -2.120556 c -1.784251,0 -2.132864,-0.0315 -2.198151,-0.19876 -0.06754,-0.17302 1.071103,-3.51682 4.962113,-14.57199 0.514174,-1.46088 1.655654,-4.7186 2.536621,-7.23939 0.880967,-2.52079 1.683417,-4.66352 1.783223,-4.76162 0.266111,-0.26158 4.807583,-0.25896 5.028674,0.003 0.08418,0.0997 0.983564,2.47565 1.998633,5.27989 7.961924,21.99567 11.074776,30.72755 11.011727,30.88905 -0.06082,0.15578 -0.53719,0.18795 -2.783811,0.18795 -2.453822,0 -2.719409,-0.0214 -2.805163,-0.22599 z m -7.080525,-19.98707 c 0.0745,-0.11849 -0.555332,-1.99612 -2.447513,-7.29646 -0.376954,-1.05591 -0.729152,-1.87219 -0.782662,-1.81395 -0.05351,0.0582 -0.276726,0.63064 -0.496031,1.27201 -0.219305,0.64136 -0.9091,2.6198 -1.532875,4.39653 -0.623776,1.77674 -1.134137,3.30726 -1.134137,3.40116 0,0.13651 0.632553,0.17073 3.155732,0.17073 1.969036,0 3.186475,-0.0489 3.237486,-0.13002 z m 14.230185,20.0511 c -0.03463,-0.0891 -0.0476,-3.98098 -0.02882,-8.64866 l 0.03415,-8.4867 4.811174,-0.0398 c 3.17234,-0.0262 5.042614,0.009 5.490617,0.1037 1.375197,0.29036 2.410523,1.29396 2.949371,2.859 0.568806,1.65204 0.112409,3.72728 -1.069132,4.86138 -0.595533,0.57161 -0.620031,0.65264 -0.233764,0.77315 0.502206,0.15668 1.44425,1.12974 1.871162,1.93278 0.38571,0.72554 0.41582,0.87594 0.41599,2.07784 1.3e-4,1.16707 -0.0362,1.36364 -0.36672,1.98036 -0.681332,1.27146 -1.867912,2.14261 -3.48095,2.55559 -1.0178,0.26059 -10.293081,0.28854 -10.39308,0.0313 z m 8.90271,-3.08831 c 0.72833,-0.16491 1.113357,-0.5051 1.396515,-1.23391 0.485101,-1.24859 -0.1801,-2.52823 -1.404461,-2.70175 -0.321866,-0.0456 -1.593582,-0.0654 -2.826034,-0.044 l -2.240821,0.0389 -0.03674,1.87277 c -0.02021,1.03003 -0.0072,1.94834 0.02882,2.0407 0.0822,0.21055 4.17622,0.23253 5.082722,0.0273 z m -0.01118,-7.21255 c 0.888455,-0.4471 1.197304,-1.73759 0.662479,-2.76808 -0.415678,-0.80091 -0.771189,-0.89201 -3.481047,-0.89201 h -2.310962 v 1.94352 1.94352 l 2.339681,-2.6e-4 c 1.967681,-1.3e-4 2.411256,-0.0362 2.789848,-0.22674 z M 3.7554963,421.62817 c -0.03464,-0.0891 -0.0476,-3.92267 -0.02882,-8.51909 l 0.03416,-8.35714 h 1.6476626 1.647662 l 0.03413,6.85522 c 0.0239,4.79993 0.07813,6.90734 0.180906,7.02906 0.117224,0.13884 1.003245,0.17385 4.4004581,0.17385 3.757203,0 4.263019,0.0239 4.333689,0.20494 0.103961,0.26631 0.103961,2.30387 0,2.57017 -0.07135,0.18277 -0.735099,0.20495 -6.1334411,0.20495 -4.721287,0 -6.0672906,-0.0356 -6.1164066,-0.16196 z m -0.02761,-19.22948 c -0.129473,-0.0513 -0.164766,-1.89381 -0.164766,-8.60148 0,-8.30681 0.0069,-8.53973 0.2549596,-8.67025 0.398222,-0.20949 11.2278021,-0.18185 11.5217211,0.0294 0.196744,0.14141 0.222441,0.36489 0.18996,1.65199 l -0.03756,1.48845 -4.05325,0.0343 -4.0532501,0.0343 v 2.00643 2.00643 H 10.73283 c 2.930548,0 3.357087,0.0255 3.427138,0.20495 0.04401,0.11272 0.08001,0.75553 0.08001,1.42846 0,1.19413 -0.0081,1.22654 -0.338113,1.34986 -0.185962,0.0695 -1.728174,0.12636 -3.427138,0.12636 H 7.3857019 v 3.24772 c 0,1.99096 -0.0528,3.3447 -0.136451,3.49834 -0.123976,0.2277 -0.283644,0.24968 -1.746522,0.24038 -0.885539,-0.006 -1.684216,-0.0396 -1.7748376,-0.0756 z M 40.94621,401.89085 c -0.04401,-0.11272 -0.08001,-3.92968 -0.08001,-8.48214 0,-8.05081 0.007,-8.28086 0.254961,-8.41132 0.340669,-0.17922 8.498577,-0.17594 9.631015,0.004 1.882615,0.29892 3.084818,1.56581 3.410226,3.59371 0.246073,1.5335 -0.238028,3.01629 -1.326758,4.06384 l -0.628292,0.60454 0.722336,0.40071 c 1.929593,1.07045 2.694953,3.79144 1.627553,5.78623 -0.393301,0.73501 -1.2238,1.52839 -2.008324,1.91856 -1.278699,0.63594 -2.114958,0.72225 -7.022206,0.7247 -3.983623,0.002 -4.509681,-0.0213 -4.580501,-0.2027 z m 9.411867,-3.06664 c 0.7822,-0.52329 0.987257,-0.92024 0.987257,-1.91113 0,-1.01866 -0.242658,-1.46756 -0.997967,-1.84614 -0.385959,-0.19345 -0.83979,-0.22657 -3.107087,-0.22674 -2.299641,-1.3e-4 -2.665823,0.0272 -2.735119,0.20474 -0.109072,0.2794 -0.10197,3.87645 0.0079,3.98442 0.04833,0.0475 1.28519,0.0864 2.748576,0.0864 2.542259,0 2.680104,-0.013 3.096471,-0.29153 z m -0.541299,-6.99858 c 0.839616,-0.42415 1.209855,-1.88459 0.729839,-2.87891 -0.439,-0.90937 -0.706987,-0.9805 -3.551112,-0.9425 l -2.504447,0.0335 -0.03685,1.80771 c -0.02027,0.99424 -0.0073,1.8834 0.02882,1.97591 0.09129,0.23385 4.871733,0.23773 5.33375,0.004 z"
       style="fill:none;stroke:#0000ff;stroke-width:0.13068566;stroke-opacity:1" />
  </g>
</svg>
