<?xml version="1.0" encoding="UTF-8" standalone="no"?>
<!-- Created with Inkscape (http://www.inkscape.org/) -->

<svg
   xmlns:dc="http://purl.org/dc/elements/1.1/"
   xmlns:cc="http://creativecommons.org/ns#"
   xmlns:rdf="http://www.w3.org/1999/02/22-rdf-syntax-ns#"
   xmlns:svg="http://www.w3.org/2000/svg"
   xmlns="http://www.w3.org/2000/svg"
   xmlns:sodipodi="http://sodipodi.sourceforge.net/DTD/sodipodi-0.dtd"
   xmlns:inkscape="http://www.inkscape.org/namespaces/inkscape"
   width="800mm"
   height="1000mm"
   viewBox="0 0 800 1000"
   version="1.1"
   id="svg8"
   inkscape:version="0.92.3 (2405546, 2018-03-11)"
   sodipodi:docname="TableScan.svg">
  <sodipodi:namedview
     id="base"
     pagecolor="#ffffff"
     bordercolor="#666666"
     borderopacity="1.0"
     inkscape:pageopacity="0.0"
     inkscape:pageshadow="2"
     inkscape:zoom="0.75191829"
     inkscape:cx="746.01334"
     inkscape:cy="971.31797"
     inkscape:document-units="mm"
     inkscape:current-layer="layer1"
     showgrid="false"
     inkscape:measure-start="76.3504,1500.73"
     inkscape:measure-end="124.839,1498.77"
     inkscape:window-width="1853"
     inkscape:window-height="1025"
     inkscape:window-x="67"
     inkscape:window-y="27"
     inkscape:window-maximized="1" />
  <defs
     id="defs2" />
  <metadata
     id="metadata5">
    <rdf:RDF>
      <cc:Work
         rdf:about="">
        <dc:format>image/svg+xml</dc:format>
        <dc:type
           rdf:resource="http://purl.org/dc/dcmitype/StillImage" />
        <dc:title />
      </cc:Work>
    </rdf:RDF>
  </metadata>
  <g
     transform="translate(0,703)"
     id="layer1"
     inkscape:groupmode="layer"
     inkscape:label="Calque 1">
    <path
       style="fill:none;fill-opacity:1;stroke:#ff0000;stroke-width:0.1;stroke-miterlimit:4;stroke-dasharray:none;stroke-opacity:1"
       d="m 133.65202,-687.96106 -24.59799,25.45736 v 399.54771 l 24.59799,-25.45736 z m -11.9879,29.64058 a 2.8121885,2.812188 0 0 1 2.81223,2.8117 2.8121885,2.812188 0 0 1 -2.81223,2.81223 2.8121885,2.812188 0 0 1 -2.81223,-2.81223 2.8121885,2.812188 0 0 1 2.81223,-2.8117 z m -1.79369,59.87955 h 2.96519 v 9.96476 h -2.96519 z m 1.48259,120.17044 a 2.8121885,2.812188 0 0 1 2.81224,2.8117 2.8121885,2.812188 0 0 1 -2.81224,2.81223 2.8121885,2.812188 0 0 1 -2.81223,-2.81223 2.8121885,2.812188 0 0 1 2.81223,-2.8117 z m -1.48259,115.82961 h 2.96519 v 9.96476 h -2.96519 z m 1.48259,64.12013 a 2.8121885,2.812188 0 0 1 2.81224,2.81223 2.8121885,2.812188 0 0 1 -2.81224,2.81223 2.8121885,2.812188 0 0 1 -2.81223,-2.81223 2.8121885,2.812188 0 0 1 2.81223,-2.81223 z"
       id="rect815"
       inkscape:connector-curvature="0" />
    <path
       style="fill:none;stroke:#ff0000;stroke-width:0.1;stroke-miterlimit:4;stroke-dasharray:none"
       d="m 257.12046,-330.20088 v 49.9091 h 12.95424 v 2.75746 h 8.00003 v -2.75746 h 8.00003 v 2.75746 h 8.00003 v -2.75746 h 12.95425 v -49.9091 z m 24.95403,11.63651 a 3.0299533,3.0299533 0 0 1 3.0303,3.02977 3.0299533,3.0299533 0 0 1 -3.0303,3.03033 3.0299533,3.0299533 0 0 1 -3.02979,-3.03033 3.0299533,3.0299533 0 0 1 3.02979,-3.02977 z"
       id="encoches_bottom"
       inkscape:connector-curvature="0" />
    <path
       inkscape:connector-curvature="0"
       id="path950"
       d="m 309.65579,-384.70515 v 49.9091 h 12.95424 v 2.75746 h 8.00003 v -2.75746 h 8.00003 v 2.75746 h 8.00003 v -2.75746 h 12.95425 v -49.9091 z m 24.95403,11.63651 a 3.0299533,3.0299533 0 0 1 3.0303,3.02977 3.0299533,3.0299533 0 0 1 -3.0303,3.03033 3.0299533,3.0299533 0 0 1 -3.02979,-3.03033 3.0299533,3.0299533 0 0 1 3.02979,-3.02977 z"
       style="fill:none;stroke:#ff0000;stroke-width:0.1;stroke-miterlimit:4;stroke-dasharray:none" />
    <path
       style="fill:none;stroke:#ff0000;stroke-width:0.1;stroke-miterlimit:4;stroke-dasharray:none"
       d="m 312.87721,-670.49124 v 49.90906 h 12.95424 v 2.75746 h 8.00003 v -2.75746 h 8.00003 v 2.75746 h 8.00003 v -2.75746 h 12.95425 v -49.90906 z m 24.95403,11.6365 a 3.0299533,3.0299533 0 0 1 3.0303,3.02977 3.0299533,3.0299533 0 0 1 -3.0303,3.03032 3.0299533,3.0299533 0 0 1 -3.02979,-3.03032 3.0299533,3.0299533 0 0 1 3.02979,-3.02977 z"
       id="path952"
       inkscape:connector-curvature="0" />
    <path
       inkscape:connector-curvature="0"
       id="path954"
       d="m 370.29946,-234.23904 v 49.90913 h 12.95424 v 2.75746 h 8.00003 v -2.75746 h 8.00003 v 2.75746 h 8.00003 v -2.75746 h 12.95425 v -49.90913 z m 24.95403,11.63652 a 3.0299533,3.0299533 0 0 1 3.0303,3.02977 3.0299533,3.0299533 0 0 1 -3.0303,3.03033 3.0299533,3.0299533 0 0 1 -3.02979,-3.03033 3.0299533,3.0299533 0 0 1 3.02979,-3.02977 z"
       style="fill:none;stroke:#ff0000;stroke-width:0.1;stroke-miterlimit:4;stroke-dasharray:none" />
    <path
       style="fill:none;stroke:#ff0000;stroke-width:0.1;stroke-miterlimit:4;stroke-dasharray:none"
       d="m 312.79365,-556.89309 v 49.90907 h 12.95424 v 2.75746 h 8.00003 v -2.75746 h 8.00003 v 2.75746 h 8.00003 v -2.75746 h 12.95425 v -49.90907 z m 24.95403,11.6365 a 3.0299533,3.0299533 0 0 1 3.0303,3.02977 3.0299533,3.0299533 0 0 1 -3.0303,3.03033 3.0299533,3.0299533 0 0 1 -3.02979,-3.03033 3.0299533,3.0299533 0 0 1 3.02979,-3.02977 z"
       id="path956"
       inkscape:connector-curvature="0" />
    <path
       inkscape:connector-curvature="0"
       id="path958"
       d="m 311.79839,-614.57226 v 49.9091 h 12.95424 v 2.75746 h 8.00003 v -2.75746 h 8.00003 v 2.75746 h 8.00003 v -2.75746 h 12.95425 v -49.9091 z m 24.95403,11.63651 a 3.0299533,3.0299533 0 0 1 3.0303,3.02977 3.0299533,3.0299533 0 0 1 -3.0303,3.03033 3.0299533,3.0299533 0 0 1 -3.02979,-3.03033 3.0299533,3.0299533 0 0 1 3.02979,-3.02977 z"
       style="fill:none;stroke:#ff0000;stroke-width:0.1;stroke-miterlimit:4;stroke-dasharray:none" />
    <path
       style="fill:none;stroke:#ff0000;stroke-width:0.1;stroke-miterlimit:4;stroke-dasharray:none"
       d="m 361.67219,108.73513 v 49.90916 h 12.95425 v 2.75746 h 8.00003 v -2.75746 h 8.00001 v 2.75746 h 8 v -2.75746 h 12.95425 v -49.90916 z m 24.95404,11.63653 a 3.0299533,3.0299533 0 0 1 3.03029,3.02977 3.0299533,3.0299533 0 0 1 -3.03029,3.03033 3.0299533,3.0299533 0 0 1 -3.02979,-3.03033 3.0299533,3.0299533 0 0 1 3.02979,-3.02977 z"
       id="path960"
       inkscape:connector-curvature="0" />
    <path
       inkscape:connector-curvature="0"
       id="path962"
       d="m 257.12046,-557.95144 v 49.9091 h 12.95424 v 2.75746 h 8.00003 v -2.75746 h 8.00003 v 2.75746 h 8.00003 v -2.75746 h 12.95425 v -49.9091 z m 24.95403,11.63651 a 3.0299533,3.0299533 0 0 1 3.0303,3.02977 3.0299533,3.0299533 0 0 1 -3.0303,3.03033 3.0299533,3.0299533 0 0 1 -3.02979,-3.03033 3.0299533,3.0299533 0 0 1 3.02979,-3.02977 z"
       style="fill:none;stroke:#ff0000;stroke-width:0.1;stroke-miterlimit:4;stroke-dasharray:none" />
    <path
       style="fill:none;stroke:#ff0000;stroke-width:0.1;stroke-miterlimit:4;stroke-dasharray:none"
       d="m 257.12046,-615.63059 v 49.90908 h 12.95424 v 2.75746 h 8.00003 v -2.75746 h 8.00003 v 2.75746 h 8.00003 v -2.75746 h 12.95425 v -49.90908 z m 24.95403,11.63651 a 3.0299533,3.0299533 0 0 1 3.0303,3.02977 3.0299533,3.0299533 0 0 1 -3.0303,3.03033 3.0299533,3.0299533 0 0 1 -3.02979,-3.03033 3.0299533,3.0299533 0 0 1 3.02979,-3.02977 z"
       id="path964"
       inkscape:connector-curvature="0" />
    <path
       inkscape:connector-curvature="0"
       id="path966"
       d="m 312.28803,-501.33059 v 49.9091 h 12.95424 v 2.75746 h 8.00003 v -2.75746 h 8.00003 v 2.75746 h 8.00003 v -2.75746 h 12.95425 v -49.9091 z m 24.95403,11.63652 a 3.0299533,3.0299533 0 0 1 3.0303,3.02977 3.0299533,3.0299533 0 0 1 -3.0303,3.03032 3.0299533,3.0299533 0 0 1 -3.02979,-3.03032 3.0299533,3.0299533 0 0 1 3.02979,-3.02977 z"
       style="fill:none;stroke:#ff0000;stroke-width:0.1;stroke-miterlimit:4;stroke-dasharray:none" />
    <path
       style="fill:none;stroke:#ff0000;stroke-width:0.1;stroke-miterlimit:4;stroke-dasharray:none"
       d="m 312.13278,-443.12223 v 49.90911 h 12.95424 v 2.75746 h 8.00003 v -2.75746 h 8.00003 v 2.75746 h 8.00003 v -2.75746 h 12.95425 v -49.90911 z m 24.95403,11.63652 a 3.0299533,3.0299533 0 0 1 3.0303,3.02977 3.0299533,3.0299533 0 0 1 -3.0303,3.03033 3.0299533,3.0299533 0 0 1 -3.02979,-3.03033 3.0299533,3.0299533 0 0 1 3.02979,-3.02977 z"
       id="path968"
       inkscape:connector-curvature="0" />
    <path
       inkscape:connector-curvature="0"
       id="path970"
       d="m 257.12046,-672.7806 v 49.90909 h 12.95424 v 2.75745 h 8.00003 v -2.75745 h 8.00003 v 2.75745 h 8.00003 v -2.75745 h 12.95425 v -49.90909 z m 24.95403,11.63652 a 3.0299533,3.0299533 0 0 1 3.0303,3.02977 3.0299533,3.0299533 0 0 1 -3.0303,3.03032 3.0299533,3.0299533 0 0 1 -3.02979,-3.03032 3.0299533,3.0299533 0 0 1 3.02979,-3.02977 z"
       style="fill:none;stroke:#ff0000;stroke-width:0.1;stroke-miterlimit:4;stroke-dasharray:none" />
    <path
       style="fill:none;stroke:#ff0000;stroke-width:0.1;stroke-miterlimit:4;stroke-dasharray:none"
       d="m 257.12046,-384.91386 v 49.90911 h 12.95424 v 2.75746 h 8.00003 v -2.75746 h 8.00003 v 2.75746 h 8.00003 v -2.75746 h 12.95425 v -49.90911 z m 24.95403,11.63652 a 3.0299533,3.0299533 0 0 1 3.0303,3.02977 3.0299533,3.0299533 0 0 1 -3.0303,3.03033 3.0299533,3.0299533 0 0 1 -3.02979,-3.03033 3.0299533,3.0299533 0 0 1 3.02979,-3.02977 z"
       id="path972"
       inkscape:connector-curvature="0" />
    <path
       inkscape:connector-curvature="0"
       id="path974"
       d="m 257.12046,-443.12223 v 49.90911 h 12.95424 v 2.75746 h 8.00003 v -2.75746 h 8.00003 v 2.75746 h 8.00003 v -2.75746 h 12.95425 v -49.90911 z m 24.95403,11.63652 a 3.0299533,3.0299533 0 0 1 3.0303,3.02977 3.0299533,3.0299533 0 0 1 -3.0303,3.03033 3.0299533,3.0299533 0 0 1 -3.02979,-3.03033 3.0299533,3.0299533 0 0 1 3.02979,-3.02977 z"
       style="fill:none;stroke:#ff0000;stroke-width:0.1;stroke-miterlimit:4;stroke-dasharray:none" />
    <path
       style="fill:none;stroke:#ff0000;stroke-width:0.1;stroke-miterlimit:4;stroke-dasharray:none"
       d="m 257.12046,-501.33059 v 49.9091 h 12.95424 v 2.75746 h 8.00003 v -2.75746 h 8.00003 v 2.75746 h 8.00003 v -2.75746 h 12.95425 v -49.9091 z m 24.95403,11.63652 a 3.0299533,3.0299533 0 0 1 3.0303,3.02977 3.0299533,3.0299533 0 0 1 -3.0303,3.03032 3.0299533,3.0299533 0 0 1 -3.02979,-3.03032 3.0299533,3.0299533 0 0 1 3.02979,-3.02977 z"
       id="path976"
       inkscape:connector-curvature="0" />
    <path
       style="fill:none;stroke:#ff0000;stroke-width:0.1;stroke-miterlimit:4;stroke-dasharray:none"
       d="m 310.09563,-330.20088 v 49.9091 h 12.95424 v 2.75746 h 8.00003 v -2.75746 h 8.00003 v 2.75746 h 8.00003 v -2.75746 h 12.95425 v -49.9091 z m 24.95403,11.63651 a 3.0299533,3.0299533 0 0 1 3.0303,3.02977 3.0299533,3.0299533 0 0 1 -3.0303,3.03033 3.0299533,3.0299533 0 0 1 -3.02979,-3.03033 3.0299533,3.0299533 0 0 1 3.02979,-3.02977 z"
       id="path980"
       inkscape:connector-curvature="0" />
    <path
       inkscape:connector-curvature="0"
       style="fill:none;fill-opacity:1;stroke:#ff0000;stroke-width:0.10487255;stroke-miterlimit:4;stroke-dasharray:none;stroke-opacity:1"
       d="m 54.383028,-673.0871 v 399.89495 H 104.27756 V -673.0871 Z m 12.99713,14.99695 h 8.00005 v 3.00032 h -8.00005 z m 16.00007,0 h 8.000011 v 3.00032 h -8.000011 z m -16.00007,6.4998 h 8.00005 v 3.00033 h -8.00005 z m 16.00007,0 h 8.000011 v 3.00033 h -8.000011 z m -16.00007,353.90048 h 8.00005 v 3.00032 h -8.00005 z m 16.00007,0 h 8.000011 v 3.00032 h -8.000011 z m -16.00007,6.49986 h 8.00005 v 3.00035 h -8.00005 z m 16.00007,0 h 8.000011 v 3.00035 h -8.000011 z"
       id="path1051" />
    <path
       id="path1055"
       d="m 309.13171,-241.25066 v 399.89495 h 49.89463 v -399.89495 z m 12.99713,14.99696 h 8.00005 v 3.00032 h -8.00005 z m 16.00007,0 h 8.00002 v 3.00032 h -8.00002 z m -16.00007,6.49982 h 8.00005 v 3.00032 h -8.00005 z m 16.00007,0 h 8.00002 v 3.00032 h -8.00002 z m -16.00007,353.90045 h 8.00005 v 3.00032 h -8.00005 z m 16.00007,0 h 8.00002 v 3.00032 h -8.00002 z m -16.00007,6.49986 h 8.00005 v 3.00035 h -8.00005 z m 16.00007,0 h 8.00002 v 3.00035 h -8.00002 z"
       style="fill:none;fill-opacity:1;stroke:#ff0000;stroke-width:0.10487255;stroke-miterlimit:4;stroke-dasharray:none;stroke-opacity:1"
       inkscape:connector-curvature="0" />
    <path
       style="fill:none;fill-opacity:1;stroke:#ff0000;stroke-width:0.14991954;stroke-miterlimit:4;stroke-dasharray:none;stroke-opacity:1"
       d="m 157.09962,-204.23735 v 2.83033 h -4.96973 v 356.85016 h 4.96973 v 2.88044 h 9.91052 v -2.88044 h 4.96972 v -356.85016 h -4.96972 v -2.83033 z m 4.95527,178.265749 a 3.0148456,3.0148456 0 0 1 3.0148,3.014807 3.0148456,3.0148456 0 0 1 -3.0148,3.014811 3.0148456,3.0148456 0 0 1 -3.01482,-3.014811 3.0148456,3.0148456 0 0 1 3.01482,-3.014807 z"
       id="rect1059"
       inkscape:connector-curvature="0" />
    <path
       style="fill:none;fill-opacity:1;stroke:#ff0000;stroke-width:0.14991954;stroke-miterlimit:4;stroke-dasharray:none;stroke-opacity:1"
       d="m 754.36598,-253.31481 h -2.83033 v -4.9697 H 394.68548 v 4.9697 h -2.88044 v 9.9105 h 2.88044 v 4.96972 h 356.85017 v -4.96972 h 2.83033 z m -178.26576,4.95525 a 3.0148456,3.0148456 0 0 1 -3.0148,3.01479 3.0148456,3.0148456 0 0 1 -3.01481,-3.01479 3.0148456,3.0148456 0 0 1 3.01481,-3.01479 3.0148456,3.0148456 0 0 1 3.0148,3.01479 z"
       id="path1137"
       inkscape:connector-curvature="0" />
    <path
       id="path1151"
       d="m 482.76491,169.46703 h -2.83033 V 164.4973 H 123.08429 v 4.96973 h -2.88046 v 9.91051 h 2.88046 v 4.96972 h 356.85029 v -4.96972 h 2.83033 z m -178.26575,4.95525 a 3.0148456,3.0148456 0 0 1 -3.01481,3.01481 3.0148456,3.0148456 0 0 1 -3.01481,-3.01481 3.0148456,3.0148456 0 0 1 3.01481,-3.01479 3.0148456,3.0148456 0 0 1 3.01481,3.01479 z"
       style="fill:none;fill-opacity:1;stroke:#ff0000;stroke-width:0.14991954;stroke-miterlimit:4;stroke-dasharray:none;stroke-opacity:1"
       inkscape:connector-curvature="0" />
    <path
       id="path1153"
       d="m 134.60383,-204.23735 v 2.83033 h -4.96974 v 356.85016 h 4.96974 v 2.88044 h 9.91049 v -2.88044 h 4.96972 v -356.85016 h -4.96972 v -2.83033 z m 4.95524,178.26575 a 3.0148456,3.0148456 0 0 1 3.0148,3.014807 3.0148456,3.0148456 0 0 1 -3.0148,3.014811 3.0148456,3.0148456 0 0 1 -3.01479,-3.014811 3.0148456,3.0148456 0 0 1 3.01479,-3.014807 z"
       style="fill:none;fill-opacity:1;stroke:#ff0000;stroke-width:0.14991954;stroke-miterlimit:4;stroke-dasharray:none;stroke-opacity:1"
       inkscape:connector-curvature="0" />
    <path
       id="path1166"
       d="m 162.22703,-692.19442 -24.59798,25.45736 v 399.54771 l 24.59798,-25.45736 z m -11.9879,29.64058 a 2.8121885,2.812188 0 0 1 2.81223,2.8117 2.8121885,2.812188 0 0 1 -2.81223,2.81223 2.8121885,2.812188 0 0 1 -2.81223,-2.81223 2.8121885,2.812188 0 0 1 2.81223,-2.8117 z m -1.79369,59.87955 h 2.9652 v 9.96476 h -2.9652 z m 1.4826,120.17044 a 2.8121885,2.812188 0 0 1 2.81223,2.8117 2.8121885,2.812188 0 0 1 -2.81223,2.81223 2.8121885,2.812188 0 0 1 -2.81223,-2.81223 2.8121885,2.812188 0 0 1 2.81223,-2.8117 z m -1.4826,115.82961 h 2.9652 v 9.96476 h -2.9652 z m 1.4826,64.12013 a 2.8121885,2.812188 0 0 1 2.81223,2.81223 2.8121885,2.812188 0 0 1 -2.81223,2.81223 2.8121885,2.812188 0 0 1 -2.81223,-2.81223 2.8121885,2.812188 0 0 1 2.81223,-2.81223 z"
       style="fill:none;fill-opacity:1;stroke:#ff0000;stroke-width:0.1;stroke-miterlimit:4;stroke-dasharray:none;stroke-opacity:1"
       inkscape:connector-curvature="0" />
    <path
       inkscape:connector-curvature="0"
       style="fill:none;fill-opacity:1;stroke:#ff0000;stroke-width:0.1;stroke-miterlimit:4;stroke-dasharray:none;stroke-opacity:1"
       d="m 165.6749,-691.66525 24.59799,25.45736 v 399.54771 l -24.59799,-25.45736 z m 11.9879,29.64058 a 2.8121885,2.812188 0 0 0 -2.81222,2.8117 2.8121885,2.812188 0 0 0 2.81222,2.81223 2.8121885,2.812188 0 0 0 2.81224,-2.81223 2.8121885,2.812188 0 0 0 -2.81224,-2.8117 z m 1.79369,59.87955 h -2.96519 v 9.96476 h 2.96519 z m -1.48259,120.17044 a 2.8121885,2.812188 0 0 0 -2.81223,2.8117 2.8121885,2.812188 0 0 0 2.81223,2.81223 2.8121885,2.812188 0 0 0 2.81223,-2.81223 2.8121885,2.812188 0 0 0 -2.81223,-2.8117 z m 1.48259,115.82961 h -2.96519 v 9.96476 h 2.96519 z m -1.48259,64.12013 a 2.8121885,2.812188 0 0 0 -2.81223,2.81223 2.8121885,2.812188 0 0 0 2.81223,2.81223 2.8121885,2.812188 0 0 0 2.81223,-2.81223 2.8121885,2.812188 0 0 0 -2.81223,-2.81223 z"
       id="path1168" />
    <path
       id="path1170"
       d="m 198.48324,-698.54446 24.59801,25.45736 v 399.54771 l -24.59801,-25.45736 z m 11.98792,29.64058 a 2.8121885,2.812188 0 0 0 -2.81223,2.8117 2.8121885,2.812188 0 0 0 2.81223,2.81223 2.8121885,2.812188 0 0 0 2.81223,-2.81223 2.8121885,2.812188 0 0 0 -2.81223,-2.8117 z m 1.79369,59.87955 h -2.9652 v 9.96476 h 2.9652 z m -1.4826,120.17044 a 2.8121885,2.812188 0 0 0 -2.81223,2.8117 2.8121885,2.812188 0 0 0 2.81223,2.81223 2.8121885,2.812188 0 0 0 2.81223,-2.81223 2.8121885,2.812188 0 0 0 -2.81223,-2.8117 z m 1.4826,115.82961 h -2.9652 v 9.96476 h 2.9652 z m -1.4826,64.12013 a 2.8121885,2.812188 0 0 0 -2.81223,2.81223 2.8121885,2.812188 0 0 0 2.81223,2.81223 2.8121885,2.812188 0 0 0 2.81223,-2.81223 2.8121885,2.812188 0 0 0 -2.81223,-2.81223 z"
       style="fill:none;fill-opacity:1;stroke:#ff0000;stroke-width:0.1;stroke-miterlimit:4;stroke-dasharray:none;stroke-opacity:1"
       inkscape:connector-curvature="0" />
    <path
       style="fill:none;fill-opacity:1;stroke:#ff0000;stroke-width:0.36283466;stroke-miterlimit:4;stroke-dasharray:none;stroke-opacity:1"
       d="M 870.34961 1312.3984 L 870.34961 1621.0938 L 838.88672 1652.5547 L 530.19141 1652.5547 L 530.19141 1727.7812 L 838.88672 1727.7812 L 870.34961 1759.2441 L 870.34961 2067.9395 L 945.57617 2067.9395 L 945.57617 1759.248 L 977.04102 1727.7812 L 1285.7344 1727.7812 L 1285.7344 1652.5547 L 977.04102 1652.5547 L 945.57617 1621.0898 L 945.57617 1312.3984 L 870.34961 1312.3984 z M 902.33984 1352.5293 L 913.58398 1352.5293 L 913.58398 1363.8691 L 924.92188 1363.8691 L 924.92188 1375.1113 L 913.58398 1375.1113 L 913.58398 1386.4512 L 902.33984 1386.4512 L 902.33984 1375.1113 L 891.00195 1375.1113 L 891.00195 1363.8691 L 902.33984 1363.8691 L 902.33984 1352.5293 z M 899.94531 1666.2637 L 907.81641 1674.1328 L 891.92773 1690.0215 L 884.05859 1682.1504 L 899.94531 1666.2637 z M 596.4082 1673.207 L 607.65234 1673.207 L 607.65234 1684.5469 L 618.99023 1684.5469 L 618.99023 1695.7891 L 607.65234 1695.7891 L 607.65234 1707.1289 L 596.4082 1707.1289 L 596.4082 1695.7891 L 585.07031 1695.7891 L 585.07031 1684.5469 L 596.4082 1684.5469 L 596.4082 1673.207 z M 1202.9688 1673.207 L 1214.2129 1673.207 L 1214.2129 1684.5469 L 1225.5508 1684.5469 L 1225.5508 1695.7891 L 1214.2129 1695.7891 L 1214.2129 1707.1289 L 1202.9688 1707.1289 L 1202.9688 1695.7891 L 1191.6309 1695.7891 L 1191.6309 1684.5469 L 1202.9688 1684.5469 L 1202.9688 1673.207 z M 909.37109 1680.6953 A 9.5877468 9.5877468 0 0 1 914.74219 1683.3906 A 9.5877468 9.5877468 0 0 1 917.4375 1688.7617 L 906.55469 1699.6426 A 9.5877468 9.5877468 0 0 1 901.18359 1696.9473 A 9.5877468 9.5877468 0 0 1 898.49023 1691.5762 L 909.37109 1680.6953 z M 924 1690.3164 L 931.86914 1698.1875 L 915.98242 1714.0742 L 908.11133 1706.2051 L 924 1690.3164 z M 902.33984 1984.4824 L 913.58398 1984.4824 L 913.58398 1995.8223 L 924.92188 1995.8223 L 924.92188 2007.0645 L 913.58398 2007.0645 L 913.58398 2018.4043 L 902.33984 2018.4043 L 902.33984 2007.0645 L 891.00195 2007.0645 L 891.00195 1995.8223 L 902.33984 1995.8223 L 902.33984 1984.4824 z "
       id="rect848"
       transform="matrix(0.26458333,0,0,0.26458333,0,-703)" />
    <path
       style="fill:none;fill-opacity:1;stroke:#ff0000;stroke-width:0.096;stroke-miterlimit:4;stroke-dasharray:none;stroke-opacity:1"
       d="m 742.25995,-233.87782 h -11.17269 l -3.7e-4,4.26247 -8.43288,-1e-5 v 8.52058 h 1.39221 l 3.6e-4,2.94481 -1.39256,-3.7e-4 v 1.51863 l 0.45566,3.6e-4 a 2.5367579,2.5367579 0 0 1 0.50061,1.50914 2.5367579,2.5367579 0 0 1 -0.50061,1.50914 l -0.45566,-3.7e-4 v 1.51863 l 1.39257,3.7e-4 -3.7e-4,2.94482 -1.3922,-1e-5 v 9.58246 l 7.02861,3.7e-4 -10e-6,5.6302 h 12.57733 v -10.73567 -3.33838 -14.22384 z m -22.57525,4.26248 -5.66381,-1e-5 3.7e-4,-4.26247 h -11.70254 l -3.7e-4,39.94158 10.29829,-3.7e-4 -2e-5,-5.63019 7.06809,3.6e-4 v -9.58317 l -1.58293,-2e-5 -3.8e-4,-2.94481 1.58332,3.7e-4 -10e-6,-1.51937 h -0.64677 a 2.5367579,2.5367579 0 0 1 -0.50061,-1.50913 2.5367579,2.5367579 0 0 1 0.50097,-1.50876 l 0.64641,3.5e-4 10e-6,-1.51862 -1.58332,-3.6e-4 3.6e-4,-2.94482 h 1.58296 z"
       id="path884"
       inkscape:connector-curvature="0" />
    <path
       style="fill:none;fill-opacity:1;stroke:#ff0000;stroke-width:0.096;stroke-miterlimit:4;stroke-dasharray:none;stroke-opacity:1"
       d="m 746.17459,-201.14195 v 13.55161 l 0.31729,0.31781 v 11.7724 l -0.31729,0.31782 v 13.89474 h 14.25288 l 0.13798,-0.13745 11.77343,-5.3e-4 0.13848,0.13798 h 13.55112 v -39.85438 z M 763.48,-187.3583 h 5.94434 l 5e-4,2.45202 a 4.9728172,4.9728172 0 0 1 1.64952,3.69179 4.9728172,4.9728172 0 0 1 -1.64952,3.69122 l -5e-4,2.10995 H 763.48 v -1.58284 a 4.9728172,4.9728172 0 0 1 -2.35128,-4.21833 4.9728172,4.9728172 0 0 1 2.35128,-4.22199 z"
       id="path906"
       inkscape:connector-curvature="0" />
    <path
       style="fill:none;fill-opacity:1;stroke:#ff0000;stroke-width:0.55088401;stroke-miterlimit:4;stroke-dasharray:none;stroke-opacity:1"
       d="M 1383.9609 81.402344 L 1383.9609 1668.2539 L 2970.8125 1668.2539 L 2970.8125 81.402344 L 1383.9609 81.402344 z M 2177.3867 815.14648 A 53.03901 53.03901 0 0 1 2230.4258 868.18555 A 53.03901 53.03901 0 0 1 2205.5781 913.08398 L 2205.5781 934.50977 L 2149.5547 934.50977 L 2149.5547 913.25977 A 53.03901 53.03901 0 0 1 2124.3477 868.18555 A 53.03901 53.03901 0 0 1 2177.3867 815.14648 z M 2177.3867 828.89648 A 9.3000582 9.300059 0 0 0 2168.0859 838.19531 A 9.3000582 9.300059 0 0 0 2177.3867 847.49609 A 9.3000582 9.300059 0 0 0 2186.6875 838.19531 A 9.3000582 9.300059 0 0 0 2177.3867 828.89648 z M 2111.2441 860.67969 A 7.5066739 7.5066739 0 0 1 2118.75 868.18555 A 7.5066739 7.5066739 0 0 1 2111.2441 875.69336 A 7.5066739 7.5066739 0 0 1 2103.7383 868.18555 A 7.5066739 7.5066739 0 0 1 2111.2441 860.67969 z M 2243.5273 860.67969 A 7.5066739 7.5066739 0 0 1 2251.0352 868.18555 A 7.5066739 7.5066739 0 0 1 2243.5273 875.69336 A 7.5066739 7.5066739 0 0 1 2236.0215 868.18555 A 7.5066739 7.5066739 0 0 1 2243.5273 860.67969 z "
       transform="matrix(0.26458333,0,0,0.26458333,0,-703)"
       id="rect915" />
    <path
       style="fill:none;fill-opacity:1;stroke:#ff0000;stroke-width:0.13143642;stroke-miterlimit:4;stroke-dasharray:none;stroke-opacity:1"
       d="M 576.10022,-233.54281 A 209.93427,209.93427 0 0 0 366.16626,-23.608925 209.93427,209.93427 0 0 0 576.10022,186.32562 209.93427,209.93427 0 0 0 786.03469,-23.608925 209.93427,209.93427 0 0 0 576.10022,-233.54281 Z m -1.48621,120.68204 h 2.97193 v 2.99982 h 2.99979 v 2.97191 h -2.99979 v 2.99982 h -2.97193 v -2.99982 h -2.99982 v -2.97191 h 2.99982 z m -80.89996,84.829387 h 2.97191 v 2.99982 h 2.99982 v 2.971906 h -2.99982 v 2.999819 h -2.97191 v -2.999819 h -2.99981 v -2.971906 h 2.99981 z m 160.45014,0 h 2.9714 v 2.99982 h 2.99982 v 2.971906 h -2.99982 v 2.999819 h -2.9714 v -2.999819 h -2.9998 v -2.971906 h 2.9998 z m -79.55018,82.387228 h 2.97193 v 2.999819 h 2.99979 v 2.971906 h -2.99979 v 2.999819 h -2.97193 V 60.32757 h -2.99982 v -2.971906 h 2.99982 z"
       id="path917"
       inkscape:connector-curvature="0" />
    <path
       inkscape:connector-curvature="0"
       id="rect982"
       d="M 174.19421,-239.66315 V 160.2318 h 49.89462 v -399.89495 z m 12.99713,14.99695 h 8.00005 v 3.00032 h -8.00005 z m 16.00007,0 h 8.00002 v 3.00032 h -8.00002 z m -16.00007,6.4998 h 8.00005 v 3.00033 h -8.00005 z m 16.00007,0 h 8.00002 v 3.00033 h -8.00002 z m -16.00007,353.90048 h 8.00005 v 3.00032 h -8.00005 z m 16.00007,0 h 8.00002 v 3.00032 h -8.00002 z m -16.00007,6.49986 h 8.00005 v 3.00035 h -8.00005 z m 16.00007,0 h 8.00002 v 3.00035 h -8.00002 z"
       style="fill:none;fill-opacity:1;stroke:#ff0000;stroke-width:0.10487255;stroke-miterlimit:4;stroke-dasharray:none;stroke-opacity:1" />
    <path
       style="fill:none;stroke:#0000ff;stroke-width:0.08466666;stroke-opacity:1"
       d="m 199.24498,-51.760533 c -8.40369,0 -13.19111,-0.008 -16.01504,0.0227 -0.45672,0.005 -0.86246,0.0117 -1.21904,0.0196 h -2.64687 l -0.32041,0.25892 c -0.1761,0.14253 -0.43674,0.40317 -0.57927,0.57928 l -0.2589,0.32041 -0.004,2.78691 c -0.007,0.32057 -0.0119,0.69175 -0.0165,1.08828 -0.007,0.63741 -0.0105,1.49892 -0.0139,2.35903 -0.0123,2.93544 -0.008,7.11359 -0.008,13.60434 0,4.5e-4 0,6.1e-4 0,0.001 0,0.002 0,0.002 0,0.004 0,8.13205 -0.003,12.81086 0.0196,15.61714 0.001,0.18973 0.001,0.55321 0.003,0.72294 0.005,1.53096 0.0113,2.58504 0.0196,2.83549 l 5.3e-4,0.293 0.015,0.031 c 0.0451,0.3797 0.10824,0.5067 0.41185,0.84439 0.20433,0.22728 0.49662,0.4748496 0.64957,0.5503596 0.0859,0.0425 0.3986,0.071 1.39113,0.0904 1.29215,0.0313 4.54303,0.0412 10.54717,0.0444 5.10542,0.0134 10.94422,0.0134 16.04967,0 5.34755,-0.003 8.61489,-0.0113 10.06655,-0.0351 l 1.78956,-0.002 0.32042,-0.2589 c 0.1761,-0.1425496 0.43674,-0.4031996 0.57927,-0.5792996 l 0.2589,-0.32039 v -0.36536 l 0.002,-1.60351 c 0.009,-0.4831 0.0147,-1.27881 0.0202,-2.12907 0.0261,-2.82591 0.0202,-7.56158 0.0202,-15.74065 0,-5.39734 0.005,-9.31627 -0.001,-12.17133 -2e-5,-0.007 0,-0.0102 0,-0.0171 -0.003,-1.58348 -0.0101,-2.78648 -0.0212,-3.78994 -0.005,-0.4567 -0.0122,-0.86209 -0.0202,-1.21854 v -2.64168 l -0.2589,-0.32041 c -0.14253,-0.17611 -0.40317,-0.43675 -0.57927,-0.57928 l -0.32042,-0.25892 h -2.58071 c -0.0229,-1.9e-4 -0.0672,-3.2e-4 -0.0904,-5e-4 -9.3e-4,-3e-5 -0.002,2e-5 -0.003,0 -0.35312,-0.008 -0.75544,-0.0144 -1.2056,-0.0196 -1.00571,-0.0111 -2.21845,-0.0182 -3.80339,-0.0212 -2.86128,-0.006 -6.78892,-10e-4 -12.19822,-10e-4 z m 0,0.59634 c 18.46543,0 19.18949,0.006 19.51562,0.15605 0.40986,0.18918 0.66802,0.45755 0.84283,0.87593 0.11697,0.27999 0.13118,2.3644 0.12919,19.42981 -0.002,18.36315 -0.008,19.12956 -0.15761,19.45826 -0.18968,0.41756 -0.58653,0.76461 -1.00769,0.88159 -0.21246,0.059 -6.51065,0.0862 -19.36472,0.0842 -20.52188,-0.003 -19.42288,0.0204 -19.91559,-0.43304 -0.11813,-0.10877 -0.28553,-0.35015 -0.37155,-0.53642 -0.15015,-0.32605 -0.1561,-1.05045 -0.15812,-19.45463 -0.002,-17.06541 0.0122,-19.14982 0.1292,-19.42981 0.17481,-0.41838 0.43297,-0.68675 0.84283,-0.87593 0.3261,-0.1503 1.05016,-0.15605 19.51561,-0.15605 z m 10.43245,4.146 c -1.4283,-6.4e-4 -2.79326,0.0283 -2.90267,0.0868 -0.0174,0.009 -0.0321,0.0214 -0.046,0.0388 l -0.0754,5.3e-4 -0.002,0.37052 c -0.039,0.53711 -0.0403,1.831 -0.0403,5.08651 0,2.97482 0.0229,5.4691 0.0511,5.54281 0.0204,0.0532 0.11274,0.085 0.42479,0.10438 0.29687,0.0229 0.92287,0.0274 1.97766,0.0274 0.19209,2.4e-4 0.31435,0.001 0.53951,0.001 0.2949,-1.3e-4 0.46678,-0.005 0.71829,-0.006 0.11509,-0.001 0.23185,-0.002 0.34367,-0.003 0.68387,-0.006 1.29032,-0.0167 1.6991,-0.0439 0.21902,-0.0105 0.38425,-0.0225 0.46821,-0.0346 0.0467,-0.007 0.0917,-0.019 0.13795,-0.0274 0.47852,-0.0701 0.79047,-0.17997 1.14361,-0.35865 0.50392,-0.25495 1.03722,-0.77335 1.28984,-1.25364 0.62251,-1.18351 0.27252,-2.75553 -0.72451,-3.55897 -0.001,-10e-4 -0.002,-0.002 -0.004,-0.003 -0.002,-0.002 -0.005,-0.003 -0.007,-0.005 -0.045,-0.0359 -0.0904,-0.0708 -0.13798,-0.10335 -0.0993,-0.0715 -0.20224,-0.13903 -0.31265,-0.19534 l -0.10385,-0.0527 -0.22016,-0.12454 0.40359,-0.39534 c 0.69932,-0.68453 1.01021,-1.65307 0.85215,-2.65512 -0.13203,-0.83717 -0.48943,-1.47543 -1.03921,-1.88156 -0.19799,-0.1628 -0.37383,-0.2735 -0.6568,-0.34208 -0.15579,-0.0541 -0.31972,-0.0969 -0.49403,-0.12507 -0.3637,-0.059 -1.85576,-0.0888 -3.28403,-0.0894 z m -23.1376,0.078 c -0.81024,-0.002 -1.60267,0.004 -2.26137,0.016 -0.53565,-3.5e-4 -0.95359,0.004 -1.17047,0.0202 -0.14991,0.0108 -0.23497,0.0256 -0.27027,0.0444 l -0.0232,0.0124 -0.16434,0.0878 v 5.52577 c 0,0.66916 0.002,1.1534 0.003,1.68466 7.7e-4,0.29935 7.9e-4,0.69061 0.002,0.9493 0.01,2.28028 0.0378,3.01344 0.10128,3.03908 0.0255,0.0103 0.14833,0.0201 0.31473,0.0284 0.1906,0.0181 0.46132,0.0274 0.8206,0.0274 0.47255,0 0.73404,-0.004 0.88781,-0.0268 0.0374,-0.005 0.0685,-0.0119 0.0946,-0.0196 1.9e-4,-5e-5 3.5e-4,6e-5 5.3e-4,0 0.0802,-0.024 0.11364,-0.0612 0.14367,-0.11731 0.027,-0.0506 0.0483,-0.30134 0.0635,-0.70279 0.015,-0.3956 0.0238,-0.93715 0.0238,-1.58287 v -2.12235 h 1.98438 c 1.0913,0 2.08198,-0.0373 2.20141,-0.0827 0.2122,-0.0806 0.21707,-0.10178 0.21707,-0.88209 0,-0.0322 -0.002,-0.0566 -0.002,-0.0884 0,-0.002 2e-5,-0.003 0,-0.005 0,-0.3539 -0.0154,-0.69903 -0.045,-0.81235 -0.002,-0.007 -0.003,-0.023 -0.005,-0.0274 -0.006,-0.0147 -0.0148,-0.0275 -0.0305,-0.0393 -0.0773,-0.0584 -0.31171,-0.082 -1.03871,-0.0904 -0.29003,-0.003 -0.65942,-0.004 -1.12757,-0.004 -0.002,0 -0.003,0 -0.004,0 -0.63875,-5e-5 -1.17874,-0.009 -1.56271,-0.0228 -0.28863,-0.0107 -0.48908,-0.0247 -0.57774,-0.0413 -0.006,-10e-4 -0.005,-0.003 -0.01,-0.004 v -1.24333 -0.77361 l 0.0253,-0.53795 2.57816,-0.0222 2.60344,-0.0222 0.0243,-0.97256 c 0.012,-0.4822 0.0108,-0.73234 -0.0155,-0.8785 -0.007,-0.0783 -0.0159,-0.13649 -0.0269,-0.14729 -8.7e-4,-8.2e-4 -0.0263,-0.002 -0.0289,-0.003 -0.0146,-0.0194 -0.031,-0.0362 -0.0506,-0.0506 -0.0944,-0.069 -1.88064,-0.108 -3.67522,-0.11266 z m 9.14672,0.24908 c -0.7684,-4.5e-4 -1.54027,0.0417 -1.62576,0.12713 -0.0641,0.0641 -0.57981,1.46424 -1.14564,3.11145 -0.56589,1.64722 -1.29911,3.77584 -1.62936,4.73046 -2.49931,7.22405 -3.23083,9.40935 -3.18741,9.52241 0.0419,0.10927 0.26625,0.12972 1.41232,0.12972 h 1.36168 l 0.15242,-0.35967 c 0.0839,-0.19791 0.41061,-1.11271 0.72554,-2.03295 l 0.57259,-1.67328 3.14243,0.0222 3.14245,0.0222 1.69448,4.99557 c 0.93188,2.7477 1.72193,5.06214 1.75543,5.14334 v 5.3e-4 c 0.0551,0.13367 0.22529,0.14727 1.80144,0.14727 1.44306,0 1.74942,-0.0207 1.78853,-0.12248 0.0405,-0.10551 -1.95932,-5.81165 -7.07348,-20.18479 -0.65198,-1.83245 -1.22954,-3.38471 -1.28362,-3.44993 -0.071,-0.0856 -0.83566,-0.12872 -1.60404,-0.1292 z m 15.47244,1.71929 c 0.002,0 0.004,0 0.006,0 0.64757,4e-4 0.99795,0.0311 1.22526,0.12867 0.0123,0.007 0.0246,0.0129 0.0372,0.0207 0.11893,0.073 0.21815,0.16764 0.30025,0.27803 0.0343,0.0571 0.0669,0.12128 0.10128,0.19378 0.30832,0.64976 0.0706,1.60387 -0.46871,1.88103 -0.10742,0.0552 -0.58208,0.0896 -1.14205,0.1044 -0.18301,10e-4 -0.34673,0.003 -0.59997,0.003 -0.29083,0 -0.5239,-0.002 -0.7281,-0.005 -0.52462,-0.0161 -0.93512,-0.0504 -0.95602,-0.10488 -0.0235,-0.0605 -0.0316,-0.64172 -0.0186,-1.29141 l 0.0238,-1.18131 1.60869,-0.0217 c 0.25553,-0.003 0.42706,-0.004 0.61082,-0.005 z m -15.72411,3.00551 c 0.0344,-0.0381 0.26069,0.49546 0.50281,1.18544 1.21539,3.46353 1.61989,4.6908 1.572,4.76819 -0.0326,0.0527 -0.80661,0.0843 -2.05621,0.0847 -0.79036,-2.6e-4 -1.39277,-0.0139 -1.75802,-0.0346 -0.19302,-0.0172 -0.2925,-0.0404 -0.2925,-0.077 0,-0.0614 0.32798,-1.06161 0.72863,-2.2226 0.40069,-1.16102 0.84358,-2.45362 0.98444,-2.87272 0.14086,-0.4191 0.28445,-0.79335 0.31885,-0.83145 z m 15.8936,1.48156 c 0.70249,-2.1e-4 1.08535,0.0287 1.34255,0.11988 0.01,0.005 0.0204,0.009 0.03,0.0134 0.11872,0.0605 0.21739,0.12348 0.29922,0.19431 0.0115,0.0118 0.0235,0.0225 0.0346,0.0351 0.0102,0.01 0.0194,0.02 0.029,0.03 0.0428,0.052 0.0841,0.11031 0.12816,0.17624 0.0103,0.0154 0.0184,0.0321 0.0279,0.048 0.0864,0.18203 0.12247,0.41037 0.12247,0.72244 0,0.23564 -0.0182,0.4191 -0.0646,0.57463 -0.004,0.0111 -0.007,0.0227 -0.0114,0.0336 -0.009,0.0264 -0.0198,0.0511 -0.0305,0.076 -0.013,0.0284 -0.0258,0.0569 -0.0403,0.0842 -0.0971,0.17455 -0.24971,0.31888 -0.48731,0.48059 -0.0877,0.0598 -0.16033,0.0995 -0.27027,0.12764 -0.16428,0.0337 -0.39865,0.0508 -0.82735,0.0579 -0.23297,0.004 -0.52779,0.005 -0.89141,0.005 -0.003,0 -0.004,0 -0.007,0 -0.45233,-6e-5 -0.86373,-0.006 -1.17874,-0.016 -0.0299,-10e-4 -0.0684,-0.002 -0.0956,-0.003 -0.0508,-0.002 -0.0855,-0.004 -0.12919,-0.006 -0.18537,-0.0126 -0.29652,-0.0302 -0.34417,-0.0553 -0.0105,-0.006 -0.0138,-0.0124 -0.0191,-0.0186 -0.0127,-0.0501 -0.0234,-0.1641 -0.031,-0.34055 -9.8e-4,-0.042 -0.002,-0.0709 -0.003,-0.11938 -0.003,-0.24937 -0.002,-0.57832 0.004,-0.92657 l 0.0201,-1.08468 c 0.004,-0.0323 0.008,-0.0772 0.0129,-0.0899 0.0168,-0.044 0.062,-0.0739 0.19069,-0.0941 l 1.53529,-0.0196 c 0.2439,-0.003 0.46072,-0.005 0.65371,-0.005 z m -0.21445,6.34585 c -0.40367,-7.2e-4 -0.86106,9e-4 -1.37046,0.005 l -3.09025,0.0263 -0.0217,5.54541 c -0.0121,3.05011 -0.004,5.59313 0.0181,5.65134 v 5e-4 c 0.005,0.0143 0.0667,0.0266 0.15039,0.0382 3.5e-4,2.9e-4 6.9e-4,0.002 0.001,0.003 0.004,0.003 0.0591,0.004 0.0749,0.007 0.0304,0.003 0.0651,0.006 0.10129,0.009 0.0636,0.005 0.12589,0.009 0.23204,0.0124 0.76935,0.0447 2.22191,0.0567 3.55531,0.0372 0.029,-2.6e-4 0.0565,-2.1e-4 0.0853,-5e-4 0.0634,-0.001 0.12253,-0.002 0.185,-0.003 1.0146,-0.0129 1.87986,-0.0424 2.11254,-0.091 0.0111,-0.002 0.0215,-0.006 0.0326,-0.009 0.0576,-0.008 0.11308,-0.0153 0.14571,-0.0238 1.0361,-0.26988 1.79789,-0.83934 2.23554,-1.67019 0.20219,-0.38393 0.23222,-0.53424 0.23461,-1.20562 2.1e-4,-0.0323 0.002,-0.0534 0.002,-0.0883 0,-0.0349 -10e-4,-0.0556 -0.002,-0.0879 -0.002,-0.69101 -0.0298,-0.8174 -0.26615,-1.26968 -0.0511,-0.0977 -0.11599,-0.19952 -0.18603,-0.30075 -0.18396,-0.28527 -0.40666,-0.53544 -0.64442,-0.72295 -0.13861,-0.11813 -0.26985,-0.20701 -0.37155,-0.23926 -0.008,-0.002 -0.0125,-0.005 -0.0196,-0.007 l -0.12351,-0.0636 c -0.0626,-0.0659 0.021,-0.16849 0.29353,-0.43461 0.27572,-0.26924 0.489,-0.61989 0.63251,-1.00872 0.0936,-0.20902 0.141,-0.37862 0.15968,-0.601 0.0701,-0.40974 0.067,-0.83524 -0.0176,-1.23764 -0.0318,-0.22008 -0.0909,-0.3937 -0.21082,-0.65527 -0.0431,-0.0939 -0.0911,-0.18434 -0.14317,-0.27181 -0.25926,-0.46844 -0.60386,-0.82505 -1.02266,-1.04851 -0.11647,-0.0696 -0.24609,-0.1237 -0.40773,-0.16487 -0.0655,-0.0201 -0.12983,-0.0427 -0.19791,-0.0574 -0.1497,-0.0321 -0.55893,-0.0531 -1.19218,-0.0641 -0.0773,-0.001 -0.18891,-0.001 -0.27337,-0.002 -0.21913,-0.003 -0.42505,-0.006 -0.69091,-0.007 z m -28.33676,0.11578 -0.0217,5.46116 c -0.006,1.50177 -0.007,2.87898 -0.004,3.88813 0.002,0.50448 0.005,0.91667 0.008,1.20663 0,1.3e-4 0,4e-4 0,5.3e-4 0.004,0.28937 0.008,0.45728 0.0139,0.4718 3e-5,3e-5 0,5.1e-4 0,5.1e-4 0.0104,0.0271 0.15336,0.045 0.37621,0.0594 0.47575,0.033 1.48651,0.0455 3.55225,0.0455 2.20646,0 3.1768,-0.006 3.60598,-0.0408 l 0.25786,-0.002 v -0.0408 c 0.0411,-0.0145 0.0683,-0.0308 0.076,-0.0506 0.0668,-0.17402 0.0668,-1.50548 0,-1.6795 -0.009,-0.0225 -0.0347,-0.0401 -0.076,-0.0558 v -0.0357 l -0.19378,-0.003 c -0.32023,-0.0331 -1.01224,-0.0393 -2.51407,-0.0393 -0.0463,0 -0.0698,-5.1e-4 -0.11473,-5.3e-4 l -2.24274,-0.0341 c -0.28199,-0.0175 -0.43743,-0.0414 -0.46871,-0.0791 -0.0252,-0.0304 -0.0447,-0.31898 -0.0615,-0.75395 l -0.0346,-3.74655 -0.0424,-4.57232 h -1.05833 z m 26.28934,1.99003 h 1.50275 c 0.0382,3e-5 0.0666,4.5e-4 0.10335,5.3e-4 0.18711,2.7e-4 0.34118,0.002 0.48575,0.004 0.60491,0.01 0.95041,0.0447 1.17874,0.13332 0.008,0.004 0.0161,0.007 0.0238,0.0109 0.16063,0.0822 0.28744,0.20992 0.38394,0.36224 0.0138,0.0246 0.0281,0.0454 0.0419,0.0724 0.34354,0.67337 0.14539,1.51652 -0.42529,1.80867 -0.22579,0.11557 -0.52141,0.14319 -1.5694,0.14676 -0.0683,1.4e-4 -0.10523,0.001 -0.18037,0.001 l -1.54511,5e-4 v -1.27019 z m 2.6081,4.50208 c 0.2435,0.004 0.42225,0.0118 0.55346,0.0212 0.0989,0.01 0.19103,0.0198 0.25736,0.0352 0.003,6.7e-4 0.006,8.5e-4 0.008,0.002 0.016,0.004 0.0288,0.009 0.0434,0.0129 0.0315,0.01 0.063,0.0196 0.093,0.0315 0.0113,0.005 0.0223,0.01 0.0331,0.0145 0.0191,0.008 0.0374,0.0176 0.0558,0.0269 0.0387,0.0202 0.0745,0.0413 0.10904,0.0625 0.20187,0.13187 0.35557,0.3243 0.44595,0.5519 0.0458,0.14981 0.0669,0.3253 0.0661,0.54157 -3.5e-4,0.12203 -0.008,0.22733 -0.0207,0.32452 -0.0147,0.0573 -0.0323,0.11469 -0.0543,0.17208 -0.18188,0.47625 -0.42929,0.6984 -0.8971,0.80616 -0.0653,0.015 -0.1637,0.0274 -0.27389,0.0388 -0.26419,0.0175 -0.62061,0.0288 -1.23505,0.0393 -0.36272,0.006 -0.66429,0.004 -0.94621,0.001 -0.41658,-0.0156 -0.73379,-0.0439 -0.79322,-0.0863 -0.017,-0.0734 -0.0291,-0.29149 -0.0388,-0.57672 -0.002,-0.22473 -0.001,-0.47937 0.004,-0.76739 l 0.0233,-1.2237 1.4397,-0.0253 c 0.39582,-0.007 0.79753,-0.007 1.12654,-0.002 z m -4.17081,7.62896 c -0.28549,0.002 -0.57041,0.0455 -0.84077,0.12817 -0.22778,0.0608 -0.43018,0.15491 -0.6196,0.28165 -0.29178,0.17986 -0.54594,0.41478 -0.73123,0.70847 -0.0942,0.14931 -0.17253,0.3147 -0.23873,0.48938 -0.008,0.022 -0.0163,0.0447 -0.0243,0.0672 -0.2277,0.64445 -0.27138,1.41973 -0.13023,2.12752 0.004,0.0211 0.009,0.0416 0.0134,0.0625 0.0135,0.0624 0.0281,0.1244 0.0444,0.18549 0.004,0.0157 0.009,0.031 0.0134,0.0465 0.0804,0.28482 0.19076,0.55337 0.33488,0.78962 0.10173,0.16682 0.27072,0.3461 0.46405,0.50901 0.0292,0.0253 0.059,0.0501 0.0894,0.0739 0.0295,0.0232 0.0596,0.0446 0.0899,0.0667 0.0189,0.0133 0.037,0.0275 0.0563,0.0403 0.20939,0.14613 0.42844,0.26418 0.61701,0.31885 0.14772,0.0428 0.35671,0.0628 0.57724,0.0718 0.0845,0.008 0.16656,0.0131 0.23874,0.0139 0.22516,0.003 0.43886,-0.0189 0.64129,-0.061 0.0879,-0.0152 0.1714,-0.0324 0.24236,-0.0537 0.94946,-0.28572 1.55567,-1.03238 1.74667,-2.10426 0.002,-0.0114 0.004,-0.0232 0.006,-0.0346 0.0144,-0.0854 0.0265,-0.17259 0.0357,-0.26199 0.002,-0.0239 0.005,-0.0477 0.007,-0.0718 0.009,-0.10075 0.0141,-0.20349 0.016,-0.30903 0.002,-0.1202 0.002,-0.24281 -0.005,-0.36896 -0.0471,-0.90154 -0.29543,-1.52797 -0.79891,-2.01692 -0.49075,-0.47659 -1.16909,-0.70297 -1.84486,-0.69869 z m -5.83581,0.061 c -0.1569,0 -0.26082,0.008 -0.33176,0.10025 l -0.14108,0.0641 -0.0222,2.02624 -5.3e-4,0.0289 c -8e-5,0.008 -4.2e-4,0.0109 -5e-4,0.0191 l -0.0222,2.0278 -1.20766,-2.08256 c -0.24117,-0.41567 -0.46355,-0.78558 -0.66612,-1.11673 -0.0571,-0.0944 -0.11792,-0.19434 -0.16692,-0.27234 -0.0545,-0.0874 -0.0983,-0.15528 -0.14573,-0.22944 -0.003,-0.004 -0.005,-0.007 -0.007,-0.0113 -5.8e-4,-8.5e-4 -9.8e-4,-10e-4 -0.002,-0.002 -0.18373,-0.28657 -0.32229,-0.48951 -0.35295,-0.50126 -0.10324,-0.0396 -0.25932,-0.0547 -0.41185,-0.0475 -0.0208,-4e-4 -0.038,-0.002 -0.0605,-0.002 -0.14846,-7.4e-4 -0.25151,0.001 -0.32401,0.0847 -0.001,7.1e-4 -0.004,8.5e-4 -0.005,0.002 -0.15677,0.0839 -0.16381,0.20532 -0.16381,2.81945 0,0.01 0,0.0151 0,0.0248 0,0.009 0,0.0118 0,0.0207 1.1e-4,0.47969 0.002,0.89408 0.005,1.23558 0.004,0.35335 0.01,0.63871 0.0176,0.86196 0.008,0.22313 0.0184,0.38759 0.0315,0.49922 0.007,0.0559 0.0138,0.0993 0.0217,0.13073 0.008,0.0312 0.0165,0.0511 0.0258,0.0605 0.0443,0.0443 0.126,0.0719 0.21858,0.0863 0.0478,0.009 0.097,0.0155 0.14523,0.0155 0.0739,0 0.15263,-0.0124 0.21963,-0.0315 0.0117,-0.003 0.0211,-0.008 0.032,-0.0119 0.0211,-0.007 0.0414,-0.0147 0.0584,-0.0233 0.0219,-0.0111 0.0417,-0.0226 0.0542,-0.0351 0.0385,-0.0385 0.064,-0.23059 0.0801,-0.60101 2e-5,-5.5e-4 -3e-5,-0.001 0,-0.002 0.0196,-0.35359 0.0334,-0.8587 0.0408,-1.50326 l 0.0207,-1.79781 c 0.007,-0.0741 0.0137,-0.11758 0.0212,-0.11007 0.0337,0.0337 0.58076,0.9643 1.21594,2.06756 l 1.15496,2.00607 0.17312,0.01 c 0.0979,0.0178 0.23757,0.0306 0.38137,0.031 0.2763,9e-4 0.37224,-0.0167 0.43564,-0.11264 0.008,-0.009 0.018,-0.0144 0.0253,-0.0243 0.0826,-0.113 0.1085,-0.77747 0.1085,-2.79312 0,-0.73438 -9e-4,-1.27865 -0.009,-1.68931 -8e-5,-0.003 5e-5,-0.005 0,-0.008 -0.008,-0.49837 -0.0229,-0.85865 -0.0445,-0.93895 -0.0124,-0.0463 -0.0376,-0.0855 -0.0687,-0.12041 -0.0673,-0.14502 -0.1711,-0.15349 -0.33332,-0.15349 z m -8.81756,0.003 c -0.14025,5.8e-4 -0.2808,0.0288 -0.38446,0.0842 -5.6e-4,2.9e-4 -9.8e-4,7.1e-4 -0.002,10e-4 l -0.11989,0.0424 -0.002,0.22013 c -0.0377,0.29356 -0.0408,0.94753 -0.0408,2.52336 0,0.75401 0.006,1.45002 0.016,1.96681 0.003,0.52263 0.0114,0.86452 0.0227,0.894 0.0127,0.0329 0.0596,0.0576 0.123,0.0749 0.0126,0.004 0.0288,0.007 0.0439,0.01 0.14343,0.0286 0.34298,0.025 0.47902,-0.0114 l 0.11938,-0.009 5.3e-4,-0.0506 c 0.004,-0.005 0.0129,-0.008 0.016,-0.0129 0.0376,-0.0582 0.0878,-0.99015 0.1111,-2.07068 l 0.0403,-1.88773 c 0.0957,0.13293 0.37121,0.58809 0.70538,1.15187 l 0.34883,0.60875 c 0.57983,1.01267 0.89479,1.57313 1.10844,1.89394 l 0.21238,0.3674 h 0.11473 c 0.11615,0.0614 0.22727,0.035 0.42066,0.0248 l 0.47799,-0.0248 0.003,-0.39791 c 0,0 0,-5e-4 0,-5e-4 0.041,-0.48379 0.045,-2.00176 0.0258,-3.30626 l 0.0155,-2.0066 -0.21238,-0.0537 c -0.11705,-0.0294 -0.30837,-0.0292 -0.42479,0 l -0.21134,0.0532 v 0.0104 h -5.3e-4 v 1.28106 c -0.008,0.28728 -0.0149,0.6106 -0.0191,0.99787 l -0.0155,1.40973 c -0.0118,0.20746 -0.025,0.35711 -0.0403,0.36018 -0.043,-0.004 -0.60222,-0.91546 -1.24593,-2.03036 -0.43259,-0.74928 -0.68148,-1.16962 -0.8728,-1.47225 -0.0363,-0.0589 -0.0734,-0.11798 -0.10285,-0.16383 -0.0465,-0.0697 -0.0987,-0.14883 -0.13538,-0.19637 -0.08,-0.10676 -0.14037,-0.17167 -0.19328,-0.19998 -0.0144,-0.008 -0.0312,-0.0135 -0.047,-0.0202 -0.008,-0.004 -0.0173,-0.008 -0.0258,-0.0114 -0.0912,-0.0333 -0.20002,-0.0501 -0.30954,-0.0496 z m 18.58958,5.3e-4 c -0.16492,0.003 -0.33505,0.0318 -0.43202,0.0837 -9.2e-4,4.8e-4 -0.002,0.001 -0.003,0.002 l -0.11885,0.0419 -0.002,0.22013 c -0.0376,0.29356 -0.0408,0.94803 -0.0408,2.52386 0,1.48471 0.0234,2.75921 0.0517,2.83292 l -5e-4,5e-4 c 0.0418,0.10896 0.30281,0.15217 0.51778,0.12558 0.0944,-0.009 0.17463,-0.0329 0.2217,-0.0713 0.0157,-0.0106 0.0333,-0.0203 0.0439,-0.0331 0.0607,-0.0731 0.10147,-0.80203 0.11628,-2.07894 l 0.0227,-1.9663 1.19063,2.05777 1.19062,2.05774 h 0.0134 l 0.0294,0.0501 0.48162,-0.0253 0.48112,-0.0248 0.003,-0.38497 c 0.0431,-0.58713 0.0459,-2.08002 0.0258,-3.34555 -8e-5,-0.005 8e-5,-0.01 0,-0.015 l 0.0114,-1.42783 0.004,-0.52813 v -0.01 l -0.21291,-0.0537 c -0.11702,-0.0294 -0.30787,-0.0292 -0.42426,0 l -0.21188,0.0532 v 1.55858 c -7.9e-4,0.19172 -0.002,0.33118 -0.003,0.57878 -4.8e-4,0.37301 -0.003,0.65265 -0.005,0.90278 -0.007,0.43434 -0.0198,0.75819 -0.0367,0.92345 -0.0156,0.0968 -0.0371,0.11404 -0.0661,0.0816 -0.0388,-0.0537 -0.15566,-0.24336 -0.35915,-0.586 -0.22217,-0.37409 -0.51779,-0.87873 -0.83354,-1.42419 -0.0413,-0.0714 -0.0695,-0.11632 -0.11007,-0.18606 -0.32091,-0.55351 -0.53686,-0.91665 -0.70435,-1.18803 -0.24,-0.39312 -0.41074,-0.65858 -0.44132,-0.678 -0.0763,-0.0484 -0.23609,-0.0705 -0.401,-0.0672 z m -22.08186,0.001 c -0.086,0.004 -0.17143,0.0206 -0.24805,0.047 -0.12967,0.0243 -0.24262,0.0584 -0.27234,0.10647 -0.0294,0.0476 -0.49096,1.25537 -1.02526,2.68407 -0.84711,2.2652 -0.98157,2.56923 -1.05058,2.37712 l -0.0791,-0.22016 -1.23301,-0.0232 -1.23248,-0.0233 h -5e-4 l -0.0228,-2.38953 c -0.0127,-1.349 -0.0205,-1.92728 -0.0579,-2.20194 l -0.004,-0.23045 -0.12608,-0.0439 c -0.004,-0.002 -0.007,-0.005 -0.0114,-0.008 -0.0368,-0.0197 -0.0906,-0.033 -0.14934,-0.0424 -0.1199,-0.0269 -0.27537,-0.0312 -0.3788,-0.005 l -0.22376,0.0563 v 0.004 2.79 0.0264 0.002 c 1.9e-4,0.70469 0.006,1.36292 0.0155,1.85261 7.4e-4,0.0421 2.6e-4,0.11401 0.001,0.15399 0.0102,0.52131 0.0248,0.85264 0.0403,0.86815 0.006,0.006 0.0242,0.0119 0.0532,0.0171 0.0871,0.0156 0.27019,0.0266 0.50747,0.0336 0.63278,0.0185 1.65283,0.008 2.27634,-0.0238 0.31176,-0.0159 0.52438,-0.0372 0.54002,-0.0625 0.041,-0.0663 0.0825,-0.0663 0.14883,0 0.0792,0.0792 0.36964,0.1048 0.59687,0.0811 0.0909,-0.009 0.17179,-0.0267 0.22479,-0.0517 0.0265,-0.0125 0.0459,-0.0267 0.0563,-0.0429 5e-5,-8e-5 4.7e-4,-4.5e-4 5e-4,-5.3e-4 0.0377,-0.0582 0.18412,-0.41037 0.32507,-0.78288 l 0.2558,-0.67696 1.06399,-0.0238 1.06402,-0.0238 0.28991,0.78547 0.2899,0.7855 h 0.001 v 5e-4 l 0.40103,0.0258 c 0.30523,0.0197 0.41379,-0.006 0.45321,-0.10903 0.002,-0.005 5.5e-4,-0.0192 5e-4,-0.03 0.003,-0.008 0.0106,-0.0146 0.0124,-0.0243 0.0145,-0.0753 -0.16899,-0.66561 -0.40722,-1.31207 -0.41344,-1.12191 -0.69847,-1.89195 -0.92501,-2.49647 -0.0188,-0.0514 -0.041,-0.11195 -0.0589,-0.16071 -0.091,-0.2485 -0.18073,-0.47795 -0.26664,-0.69197 -0.22834,-0.58338 -0.33975,-0.82029 -0.41238,-0.88987 -0.001,-0.001 -0.004,-0.005 -0.005,-0.006 -0.004,-0.003 -0.009,-0.005 -0.0134,-0.008 -0.0116,-0.009 -0.0233,-0.02 -0.0351,-0.0264 -0.008,-0.004 -0.0209,-0.007 -0.0305,-0.0103 -0.0188,-0.008 -0.0393,-0.0147 -0.06,-0.0212 -1.6e-4,-5e-5 -3.7e-4,6e-5 -5.3e-4,0 -0.0868,-0.0273 -0.18669,-0.0402 -0.28834,-0.0351 z m 14.21722,0.005 c -0.0986,-0.003 -0.18976,0.0164 -0.26664,0.0512 l -0.16899,0.0315 v 0.1111 c -0.0131,0.0222 -0.0242,0.0453 -0.031,0.0708 -0.0875,0.32663 -0.0603,5.11648 0.0305,5.35522 0.0191,0.0502 0.0359,0.0892 0.0563,0.11885 1e-4,1.6e-4 4.2e-4,3.7e-4 5.3e-4,5.3e-4 0.001,0.006 0.002,0.0394 0.004,0.0408 h 5e-4 c 0.0147,0.0148 0.0654,0.0252 0.1323,0.032 0.0658,0.0118 0.15065,0.0133 0.29352,0.004 l 0.016,-10e-4 0.38656,-0.0248 0.0222,-2.8117 c 0.0137,-1.72458 0.0182,-2.38905 -0.0222,-2.66962 v -0.18756 l -0.12404,-0.0434 c -0.004,-0.002 -0.007,-0.005 -0.0109,-0.007 -0.0347,-0.0186 -0.0837,-0.0312 -0.13695,-0.0408 -0.0612,-0.017 -0.12242,-0.0282 -0.18137,-0.03 z m 3.92483,0.83715 c 0.13057,0 0.25128,0.014 0.3669,0.0357 0.31321,0.0686 0.60097,0.22395 0.81804,0.45733 0.0865,0.0994 0.16388,0.21223 0.23098,0.34211 0.0437,0.0845 0.0763,0.15502 0.10544,0.22479 0.0715,0.20344 0.0964,0.4341 0.11316,0.92863 0.005,0.15243 0.007,0.2603 0.008,0.36793 -0.0126,0.25054 -0.0387,0.47483 -0.0692,0.61442 -0.034,0.0979 -0.0805,0.19759 -0.14883,0.33073 -0.13814,0.26905 -0.36033,0.54615 -0.5266,0.6563 -0.0466,0.0309 -0.0918,0.0548 -0.13745,0.077 -0.0277,0.0124 -0.056,0.0238 -0.0847,0.0346 -0.15433,0.0574 -0.33073,0.0791 -0.62579,0.0791 -0.71244,0 -1.06862,-0.18256 -1.40303,-0.71932 -0.0515,-0.0827 -0.0897,-0.15073 -0.12298,-0.2186 -0.054,-0.14261 -0.0948,-0.30252 -0.12351,-0.47799 -0.0156,-0.14412 -0.0272,-0.31335 -0.0362,-0.56433 -0.006,-0.16981 -0.008,-0.29308 -0.009,-0.40823 0.0124,-0.41055 0.0611,-0.5901 0.22429,-0.91313 0.0422,-0.08 0.0829,-0.14954 0.12401,-0.21188 0.0654,-0.0961 0.13954,-0.17862 0.2191,-0.2527 0.0775,-0.0687 0.1614,-0.12983 0.26667,-0.1855 0.14161,-0.0749 0.28959,-0.12819 0.43924,-0.16124 0.0434,-0.008 0.0857,-0.0176 0.13126,-0.0227 0.0771,-0.009 0.15748,-0.0129 0.24082,-0.0129 z m -18.16221,0.53072 c 0.11874,0.12372 0.75078,1.8591 0.70331,1.94562 -0.0188,0.0342 -0.32713,0.0614 -0.68678,0.0625 -0.17894,-5.8e-4 -0.33266,-0.008 -0.46352,-0.0181 -0.001,-1.6e-4 -0.003,1.3e-4 -0.005,0 -0.0699,-0.008 -0.12374,-0.018 -0.15864,-0.031 -0.008,-0.004 -0.024,-0.005 -0.0305,-0.009 -0.003,-0.002 -0.005,-0.004 -0.007,-0.006 -0.008,-0.006 -0.0163,-0.0127 -0.0207,-0.0201 -0.005,-0.008 -0.006,-0.0166 -0.007,-0.0258 1.9e-4,-0.006 0.005,-0.0232 0.007,-0.0315 0.0109,-0.089 0.13269,-0.46511 0.28835,-0.88315 0.079,-0.21207 0.1493,-0.41357 0.20259,-0.57465 0.0822,-0.21212 0.15012,-0.3747 0.17775,-0.40876 z"
       id="path1056"
       inkscape:connector-curvature="0" />
    <path
       inkscape:connector-curvature="0"
       style="fill:none;fill-opacity:1;stroke:#ff0000;stroke-width:0.10487255;stroke-miterlimit:4;stroke-dasharray:none;stroke-opacity:1"
       d="m 255.6859,-240.72149 v 399.89495 h 49.89463 v -399.89495 z m 12.99713,14.99695 h 8.00005 v 3.00032 h -8.00005 z m 16.00007,0 h 8.00002 v 3.00032 h -8.00002 z m -16.00007,6.49982 h 8.00005 v 3.00033 h -8.00005 z m 16.00007,0 h 8.00002 v 3.00033 h -8.00002 z m -16.00007,353.90046 h 8.00005 v 3.00032 h -8.00005 z m 16.00007,0 h 8.00002 v 3.00032 h -8.00002 z m -16.00007,6.49986 h 8.00005 v 3.00035 h -8.00005 z m 16.00007,0 h 8.00002 v 3.00035 h -8.00002 z"
       id="path1053" />
    <path
       inkscape:connector-curvature="0"
       id="path1074"
       d="m 279.89251,-51.760534 c -8.40369,0 -13.19111,-0.008 -16.01504,0.0227 -0.45672,0.005 -0.86246,0.0117 -1.21904,0.0196 h -2.64687 l -0.32041,0.25892 c -0.1761,0.14253 -0.43674,0.40317 -0.57927,0.57928 l -0.2589,0.32041 -0.004,2.78691 c -0.007,0.32057 -0.0119,0.69175 -0.0165,1.08828 -0.007,0.63741 -0.0105,1.49892 -0.0139,2.35903 -0.0123,2.93544 -0.008,7.11359 -0.008,13.60434 0,4.5e-4 0,6.1e-4 0,10e-4 0,0.002 0,0.002 0,0.004 0,8.13205 -0.003,12.81086 0.0196,15.61714 0.001,0.18973 0.001,0.55321 0.003,0.72294 0.005,1.53096 0.0113,2.58504 0.0196,2.83549 l 5.3e-4,0.293 0.015,0.031 c 0.0451,0.3797 0.10824,0.5067 0.41185,0.844391 0.20433,0.22728 0.49662,0.4748497 0.64957,0.5503597 0.0859,0.0425 0.3986,0.071 1.39113,0.0904 1.29215,0.0313 4.54303,0.0412 10.54717,0.0444 5.10542,0.0134 10.94422,0.0134 16.04967,0 5.34755,-0.003 8.61489,-0.0113 10.06655,-0.0351 l 1.78956,-0.002 0.32042,-0.2589 c 0.1761,-0.1425497 0.43674,-0.4032007 0.57927,-0.5793007 l 0.2589,-0.32039 v -0.36536 l 0.002,-1.60351 c 0.009,-0.4831 0.0147,-1.27881 0.0202,-2.12907 0.0261,-2.82591 0.0202,-7.56158 0.0202,-15.74065 0,-5.39734 0.005,-9.31627 -0.001,-12.17133 -2e-5,-0.007 0,-0.0102 0,-0.0171 -0.003,-1.58348 -0.0101,-2.78648 -0.0212,-3.78994 -0.005,-0.4567 -0.0122,-0.86209 -0.0202,-1.21854 v -2.64168 l -0.2589,-0.32041 c -0.14253,-0.17611 -0.40317,-0.43675 -0.57927,-0.57928 l -0.32042,-0.25892 h -2.58071 c -0.0229,-1.9e-4 -0.0672,-3.2e-4 -0.0904,-5e-4 -9.3e-4,-3e-5 -0.002,2e-5 -0.003,0 -0.35312,-0.008 -0.75544,-0.0144 -1.2056,-0.0196 -1.00571,-0.0111 -2.21845,-0.0182 -3.80339,-0.0212 -2.86128,-0.006 -6.78892,-0.001 -12.19822,-0.001 z m 0,0.59634 c 18.46543,0 19.18949,0.006 19.51562,0.15605 0.40986,0.18918 0.66802,0.45755 0.84283,0.87593 0.11697,0.27999 0.13118,2.3644 0.12919,19.42981 -0.002,18.36315 -0.008,19.12956 -0.15761,19.45826 -0.18968,0.41756 -0.58653,0.76461 -1.00769,0.881591 -0.21246,0.059 -6.51065,0.0862 -19.36472,0.0842 -20.52188,-0.003 -19.42288,0.0204 -19.91559,-0.433041 -0.11813,-0.10877 -0.28553,-0.35015 -0.37155,-0.53642 -0.15015,-0.32605 -0.1561,-1.05045 -0.15812,-19.45463 -0.002,-17.06541 0.0122,-19.14982 0.1292,-19.42981 0.17481,-0.41838 0.43297,-0.68675 0.84283,-0.87593 0.3261,-0.1503 1.05016,-0.15605 19.51561,-0.15605 z m 10.43245,4.146 c -1.4283,-6.4e-4 -2.79326,0.0283 -2.90267,0.0868 -0.0174,0.009 -0.0321,0.0214 -0.046,0.0388 l -0.0754,5.3e-4 -0.002,0.37052 c -0.039,0.53711 -0.0403,1.831 -0.0403,5.08651 0,2.97482 0.0229,5.4691 0.0511,5.54281 0.0204,0.0532 0.11274,0.085 0.42479,0.10438 0.29687,0.0229 0.92287,0.0274 1.97766,0.0274 0.19209,2.4e-4 0.31435,10e-4 0.53951,10e-4 0.2949,-1.3e-4 0.46678,-0.005 0.71829,-0.006 0.11509,-10e-4 0.23185,-0.002 0.34367,-0.003 0.68387,-0.006 1.29032,-0.0167 1.6991,-0.0439 0.21902,-0.0105 0.38425,-0.0225 0.46821,-0.0346 0.0467,-0.007 0.0917,-0.019 0.13795,-0.0274 0.47852,-0.0701 0.79047,-0.17997 1.14361,-0.35865 0.50392,-0.25495 1.03722,-0.77335 1.28984,-1.25364 0.62251,-1.18351 0.27252,-2.75553 -0.72451,-3.55897 -10e-4,-0.001 -0.002,-0.002 -0.004,-0.003 -0.002,-0.002 -0.005,-0.003 -0.007,-0.005 -0.045,-0.0359 -0.0904,-0.0708 -0.13798,-0.10335 -0.0993,-0.0715 -0.20224,-0.13903 -0.31265,-0.19534 l -0.10385,-0.0527 -0.22016,-0.12454 0.40359,-0.39534 c 0.69932,-0.68453 1.01021,-1.65307 0.85215,-2.65512 -0.13203,-0.83717 -0.48943,-1.47543 -1.03921,-1.88156 -0.19799,-0.1628 -0.37383,-0.2735 -0.6568,-0.34208 -0.15579,-0.0541 -0.31972,-0.0969 -0.49403,-0.12507 -0.3637,-0.059 -1.85576,-0.0888 -3.28403,-0.0894 z m -23.1376,0.078 c -0.81024,-0.002 -1.60267,0.004 -2.26137,0.016 -0.53565,-3.5e-4 -0.95359,0.004 -1.17047,0.0202 -0.14991,0.0108 -0.23497,0.0256 -0.27027,0.0444 l -0.0232,0.0124 -0.16434,0.0878 v 5.52577 c 0,0.66916 0.002,1.1534 0.003,1.68466 7.7e-4,0.29935 7.9e-4,0.69061 0.002,0.9493 0.01,2.28028 0.0378,3.01344 0.10128,3.03908 0.0255,0.0103 0.14833,0.0201 0.31473,0.0284 0.1906,0.0181 0.46132,0.0274 0.8206,0.0274 0.47255,0 0.73404,-0.004 0.88781,-0.0268 0.0374,-0.005 0.0685,-0.0119 0.0946,-0.0196 1.9e-4,-5e-5 3.5e-4,6e-5 5.3e-4,0 0.0802,-0.024 0.11364,-0.0612 0.14367,-0.11731 0.027,-0.0506 0.0483,-0.30134 0.0635,-0.70279 0.015,-0.3956 0.0238,-0.93715 0.0238,-1.58287 v -2.12235 h 1.98438 c 1.0913,0 2.08198,-0.0373 2.20141,-0.0827 0.2122,-0.0806 0.21707,-0.10178 0.21707,-0.88209 0,-0.0322 -0.002,-0.0566 -0.002,-0.0884 0,-0.002 2e-5,-0.003 0,-0.005 0,-0.3539 -0.0154,-0.69903 -0.045,-0.81235 -0.002,-0.007 -0.003,-0.023 -0.005,-0.0274 -0.006,-0.0147 -0.0148,-0.0275 -0.0305,-0.0393 -0.0773,-0.0584 -0.31171,-0.082 -1.03871,-0.0904 -0.29003,-0.003 -0.65942,-0.004 -1.12757,-0.004 -0.002,0 -0.003,0 -0.004,0 -0.63875,-5e-5 -1.17874,-0.009 -1.56271,-0.0228 -0.28863,-0.0107 -0.48908,-0.0247 -0.57774,-0.0413 -0.006,-10e-4 -0.005,-0.003 -0.01,-0.004 v -1.24333 -0.77361 l 0.0253,-0.53795 2.57816,-0.0222 2.60344,-0.0222 0.0243,-0.97256 c 0.012,-0.4822 0.0108,-0.73234 -0.0155,-0.8785 -0.007,-0.0783 -0.0159,-0.13649 -0.0269,-0.14729 -8.7e-4,-8.2e-4 -0.0263,-0.002 -0.0289,-0.003 -0.0146,-0.0194 -0.031,-0.0362 -0.0506,-0.0506 -0.0944,-0.069 -1.88064,-0.108 -3.67522,-0.11266 z m 9.14672,0.24908 c -0.7684,-4.5e-4 -1.54027,0.0417 -1.62576,0.12713 -0.0641,0.0641 -0.57981,1.46424 -1.14564,3.11145 -0.56589,1.64722 -1.29911,3.77584 -1.62936,4.73046 -2.49931,7.22405 -3.23083,9.40935 -3.18741,9.52241 0.0419,0.10927 0.26625,0.12972 1.41232,0.12972 h 1.36168 l 0.15242,-0.35967 c 0.0839,-0.19791 0.41061,-1.11271 0.72554,-2.03295 l 0.57259,-1.67328 3.14243,0.0222 3.14245,0.0222 1.69448,4.99557 c 0.93188,2.7477 1.72193,5.06214 1.75543,5.14334 v 5.3e-4 c 0.0551,0.13367 0.22529,0.14727 1.80144,0.14727 1.44306,0 1.74942,-0.0207 1.78853,-0.12248 0.0405,-0.10551 -1.95932,-5.81165 -7.07348,-20.18479 -0.65198,-1.83245 -1.22954,-3.38471 -1.28362,-3.44993 -0.071,-0.0856 -0.83566,-0.12872 -1.60404,-0.1292 z m 15.47244,1.71929 c 0.002,0 0.004,0 0.006,0 0.64757,4e-4 0.99795,0.0311 1.22526,0.12867 0.0123,0.007 0.0246,0.0129 0.0372,0.0207 0.11893,0.073 0.21815,0.16764 0.30025,0.27803 0.0343,0.0571 0.0669,0.12128 0.10128,0.19378 0.30832,0.64976 0.0706,1.60387 -0.46871,1.88103 -0.10742,0.0552 -0.58208,0.0896 -1.14205,0.1044 -0.18301,0.001 -0.34673,0.003 -0.59997,0.003 -0.29083,0 -0.5239,-0.002 -0.7281,-0.005 -0.52462,-0.0161 -0.93512,-0.0504 -0.95602,-0.10488 -0.0235,-0.0605 -0.0316,-0.64172 -0.0186,-1.29141 l 0.0238,-1.18131 1.60869,-0.0217 c 0.25553,-0.003 0.42706,-0.004 0.61082,-0.005 z m -15.72411,3.00551 c 0.0344,-0.0381 0.26069,0.49546 0.50281,1.18544 1.21539,3.46353 1.61989,4.6908 1.572,4.76819 -0.0326,0.0527 -0.80661,0.0843 -2.05621,0.0847 -0.79036,-2.6e-4 -1.39277,-0.0139 -1.75802,-0.0346 -0.19302,-0.0172 -0.2925,-0.0404 -0.2925,-0.077 0,-0.0614 0.32798,-1.06161 0.72863,-2.2226 0.40069,-1.16102 0.84358,-2.45362 0.98444,-2.87272 0.14086,-0.4191 0.28445,-0.79335 0.31885,-0.83145 z m 15.8936,1.48156 c 0.70249,-2.1e-4 1.08535,0.0287 1.34255,0.11988 0.01,0.005 0.0204,0.009 0.03,0.0134 0.11872,0.0605 0.21739,0.12348 0.29922,0.19431 0.0115,0.0118 0.0235,0.0225 0.0346,0.0351 0.0102,0.01 0.0194,0.02 0.029,0.03 0.0428,0.052 0.0841,0.11031 0.12816,0.17624 0.0103,0.0154 0.0184,0.0321 0.0279,0.048 0.0864,0.18203 0.12247,0.41037 0.12247,0.72244 0,0.23564 -0.0182,0.4191 -0.0646,0.57463 -0.004,0.0111 -0.007,0.0227 -0.0114,0.0336 -0.009,0.0264 -0.0198,0.0511 -0.0305,0.076 -0.013,0.0284 -0.0258,0.0569 -0.0403,0.0842 -0.0971,0.17455 -0.24971,0.31888 -0.48731,0.48059 -0.0877,0.0598 -0.16033,0.0995 -0.27027,0.12764 -0.16428,0.0337 -0.39865,0.0508 -0.82735,0.0579 -0.23297,0.004 -0.52779,0.005 -0.89141,0.005 -0.003,0 -0.004,0 -0.007,0 -0.45233,-6e-5 -0.86373,-0.006 -1.17874,-0.016 -0.0299,-0.001 -0.0684,-0.002 -0.0956,-0.003 -0.0508,-0.002 -0.0855,-0.004 -0.12919,-0.006 -0.18537,-0.0126 -0.29652,-0.0302 -0.34417,-0.0553 -0.0105,-0.006 -0.0138,-0.0124 -0.0191,-0.0186 -0.0127,-0.0501 -0.0234,-0.1641 -0.031,-0.34055 -9.8e-4,-0.042 -0.002,-0.0709 -0.003,-0.11938 -0.003,-0.24937 -0.002,-0.57832 0.004,-0.92657 l 0.0201,-1.08468 c 0.004,-0.0323 0.008,-0.0772 0.0129,-0.0899 0.0168,-0.044 0.062,-0.0739 0.19069,-0.0941 l 1.53529,-0.0196 c 0.2439,-0.003 0.46072,-0.005 0.65371,-0.005 z m -0.21445,6.34585 c -0.40367,-7.2e-4 -0.86106,9e-4 -1.37046,0.005 l -3.09025,0.0263 -0.0217,5.54541 c -0.0121,3.05011 -0.004,5.59313 0.0181,5.65134 v 5e-4 c 0.005,0.0143 0.0667,0.0266 0.15039,0.0382 3.5e-4,2.9e-4 6.9e-4,0.002 0.001,0.003 0.004,0.003 0.0591,0.004 0.0749,0.007 0.0304,0.003 0.0651,0.006 0.10129,0.009 0.0636,0.005 0.12589,0.009 0.23204,0.0124 0.76935,0.0447 2.22191,0.0567 3.55531,0.0372 0.029,-2.6e-4 0.0565,-2.1e-4 0.0853,-5e-4 0.0634,-10e-4 0.12253,-0.002 0.185,-0.003 1.0146,-0.0129 1.87986,-0.0424 2.11254,-0.091 0.0111,-0.002 0.0215,-0.006 0.0326,-0.009 0.0576,-0.008 0.11308,-0.0153 0.14571,-0.0238 1.0361,-0.26988 1.79789,-0.83934 2.23554,-1.67019 0.20219,-0.38393 0.23222,-0.53424 0.23461,-1.20562 2.1e-4,-0.0323 0.002,-0.0534 0.002,-0.0883 0,-0.0349 -10e-4,-0.0556 -0.002,-0.0879 -0.002,-0.69101 -0.0298,-0.8174 -0.26615,-1.26968 -0.0511,-0.0977 -0.11599,-0.19952 -0.18603,-0.30075 -0.18396,-0.28527 -0.40666,-0.53544 -0.64442,-0.72295 -0.13861,-0.11813 -0.26985,-0.20701 -0.37155,-0.23926 -0.008,-0.002 -0.0125,-0.005 -0.0196,-0.007 l -0.12351,-0.0636 c -0.0626,-0.0659 0.021,-0.16849 0.29353,-0.43461 0.27572,-0.26924 0.489,-0.61989 0.63251,-1.00872 0.0936,-0.20902 0.141,-0.37862 0.15968,-0.601 0.0701,-0.40974 0.067,-0.83524 -0.0176,-1.23764 -0.0318,-0.22008 -0.0909,-0.3937 -0.21082,-0.65527 -0.0431,-0.0939 -0.0911,-0.18434 -0.14317,-0.27181 -0.25926,-0.46844 -0.60386,-0.82505 -1.02266,-1.04851 -0.11647,-0.0696 -0.24609,-0.1237 -0.40773,-0.16487 -0.0655,-0.0201 -0.12983,-0.0427 -0.19791,-0.0574 -0.1497,-0.0321 -0.55893,-0.0531 -1.19218,-0.0641 -0.0773,-10e-4 -0.18891,-10e-4 -0.27337,-0.002 -0.21913,-0.003 -0.42505,-0.006 -0.69091,-0.007 z m -28.33676,0.11578 -0.0217,5.46116 c -0.006,1.50177 -0.007,2.87898 -0.004,3.88813 0.002,0.50448 0.005,0.91667 0.008,1.20663 0,1.3e-4 0,4e-4 0,5.3e-4 0.004,0.28937 0.008,0.45728 0.0139,0.4718 3e-5,3e-5 0,5.1e-4 0,5.1e-4 0.0104,0.0271 0.15336,0.045 0.37621,0.0594 0.47575,0.033 1.48651,0.0455 3.55225,0.0455 2.20646,0 3.1768,-0.006 3.60598,-0.0408 l 0.25786,-0.002 v -0.0408 c 0.0411,-0.0145 0.0683,-0.0308 0.076,-0.0506 0.0668,-0.17402 0.0668,-1.50548 0,-1.6795 -0.009,-0.0225 -0.0347,-0.0401 -0.076,-0.0558 v -0.0357 l -0.19378,-0.003 c -0.32023,-0.0331 -1.01224,-0.0393 -2.51407,-0.0393 -0.0463,0 -0.0698,-5.1e-4 -0.11473,-5.3e-4 l -2.24274,-0.0341 c -0.28199,-0.0175 -0.43743,-0.0414 -0.46871,-0.0791 -0.0252,-0.0304 -0.0447,-0.31898 -0.0615,-0.75395 l -0.0346,-3.74655 -0.0424,-4.57232 h -1.05833 z m 26.28934,1.99003 h 1.50275 c 0.0382,3e-5 0.0666,4.5e-4 0.10335,5.3e-4 0.18711,2.7e-4 0.34118,0.002 0.48575,0.004 0.60491,0.01 0.95041,0.0447 1.17874,0.13332 0.008,0.004 0.0161,0.007 0.0238,0.0109 0.16063,0.0822 0.28744,0.20992 0.38394,0.36224 0.0138,0.0246 0.0281,0.0454 0.0419,0.0724 0.34354,0.67337 0.14539,1.51652 -0.42529,1.80867 -0.22579,0.11557 -0.52141,0.14319 -1.5694,0.14676 -0.0683,1.4e-4 -0.10523,0.001 -0.18037,0.001 l -1.54511,5e-4 v -1.27019 z m 2.6081,4.50208 c 0.2435,0.004 0.42225,0.0118 0.55346,0.0212 0.0989,0.01 0.19103,0.0198 0.25736,0.0352 0.003,6.7e-4 0.006,8.5e-4 0.008,0.002 0.016,0.004 0.0288,0.009 0.0434,0.0129 0.0315,0.01 0.063,0.0196 0.093,0.0315 0.0113,0.005 0.0223,0.01 0.0331,0.0145 0.0191,0.008 0.0374,0.0176 0.0558,0.0269 0.0387,0.0202 0.0745,0.0413 0.10904,0.0625 0.20187,0.13187 0.35557,0.3243 0.44595,0.5519 0.0458,0.14981 0.0669,0.3253 0.0661,0.54157 -3.5e-4,0.12203 -0.008,0.22733 -0.0207,0.32452 -0.0147,0.0573 -0.0323,0.11469 -0.0543,0.17208 -0.18188,0.47625 -0.42929,0.6984 -0.8971,0.80616 -0.0653,0.015 -0.1637,0.0274 -0.27389,0.0388 -0.26419,0.0175 -0.62061,0.0288 -1.23505,0.0393 -0.36272,0.006 -0.66429,0.004 -0.94621,10e-4 -0.41658,-0.0156 -0.73379,-0.0439 -0.79322,-0.0863 -0.017,-0.0734 -0.0291,-0.29149 -0.0388,-0.57672 -0.002,-0.22473 -0.001,-0.47937 0.004,-0.76739 l 0.0233,-1.2237 1.4397,-0.0253 c 0.39582,-0.007 0.79753,-0.007 1.12654,-0.002 z m -4.17081,7.62896 c -0.28549,0.002 -0.57041,0.0455 -0.84077,0.12817 -0.22778,0.0608 -0.43018,0.15491 -0.6196,0.28165 -0.29178,0.17986 -0.54594,0.41478 -0.73123,0.70847 -0.0942,0.14931 -0.17253,0.3147 -0.23873,0.48938 -0.008,0.022 -0.0163,0.0447 -0.0243,0.0672 -0.2277,0.64445 -0.27138,1.41973 -0.13023,2.12752 0.004,0.0211 0.009,0.0416 0.0134,0.0625 0.0135,0.0624 0.0281,0.1244 0.0444,0.18549 0.004,0.0157 0.009,0.031 0.0134,0.0465 0.0804,0.28482 0.19076,0.55337 0.33488,0.78962 0.10173,0.16682 0.27072,0.3461 0.46405,0.50901 0.0292,0.0253 0.059,0.0501 0.0894,0.0739 0.0295,0.0232 0.0596,0.0446 0.0899,0.0667 0.0189,0.0133 0.037,0.0275 0.0563,0.0403 0.20939,0.14613 0.42844,0.26418 0.61701,0.31885 0.14772,0.0428 0.35671,0.0628 0.57724,0.0718 0.0845,0.008 0.16656,0.0131 0.23874,0.0139 0.22516,0.003 0.43886,-0.0189 0.64129,-0.061 0.0879,-0.0152 0.1714,-0.0324 0.24236,-0.0537 0.94946,-0.28572 1.55567,-1.03238 1.74667,-2.10426 0.002,-0.0114 0.004,-0.0232 0.006,-0.0346 0.0144,-0.0854 0.0265,-0.17259 0.0357,-0.26199 0.002,-0.0239 0.005,-0.0477 0.007,-0.0718 0.009,-0.10075 0.0141,-0.20349 0.016,-0.30903 0.002,-0.1202 0.002,-0.24281 -0.005,-0.36896 -0.0471,-0.90154 -0.29543,-1.52797 -0.79891,-2.01692 -0.49075,-0.47659 -1.16909,-0.70297 -1.84486,-0.69869 z m -5.83581,0.061 c -0.1569,0 -0.26082,0.008 -0.33176,0.10025 l -0.14108,0.0641 -0.0222,2.02624 -5.3e-4,0.0289 c -8e-5,0.008 -4.2e-4,0.0109 -5e-4,0.0191 l -0.0222,2.0278 -1.20766,-2.08256 c -0.24117,-0.41567 -0.46355,-0.78558 -0.66612,-1.11673 -0.0571,-0.0944 -0.11792,-0.19434 -0.16692,-0.27234 -0.0545,-0.0874 -0.0983,-0.15528 -0.14573,-0.22944 -0.003,-0.004 -0.005,-0.007 -0.007,-0.0113 -5.8e-4,-8.5e-4 -9.8e-4,-0.001 -0.002,-0.002 -0.18373,-0.28657 -0.32229,-0.48951 -0.35295,-0.50126 -0.10324,-0.0396 -0.25932,-0.0547 -0.41185,-0.0475 -0.0208,-4e-4 -0.038,-0.002 -0.0605,-0.002 -0.14846,-7.4e-4 -0.25151,0.001 -0.32401,0.0847 -10e-4,7.1e-4 -0.004,8.5e-4 -0.005,0.002 -0.15677,0.0839 -0.16381,0.20532 -0.16381,2.81945 0,0.01 0,0.0151 0,0.0248 0,0.009 0,0.0118 0,0.0207 1.1e-4,0.47969 0.002,0.89408 0.005,1.23558 0.004,0.35335 0.01,0.63871 0.0176,0.86196 0.008,0.22313 0.0184,0.38759 0.0315,0.49922 0.007,0.0559 0.0138,0.0993 0.0217,0.13073 0.008,0.0312 0.0165,0.0511 0.0258,0.0605 0.0443,0.0443 0.126,0.0719 0.21858,0.0863 0.0478,0.009 0.097,0.0155 0.14523,0.0155 0.0739,0 0.15263,-0.0124 0.21963,-0.0315 0.0117,-0.003 0.0211,-0.008 0.032,-0.0119 0.0211,-0.007 0.0414,-0.0147 0.0584,-0.0233 0.0219,-0.0111 0.0417,-0.0226 0.0542,-0.0351 0.0385,-0.0385 0.064,-0.23059 0.0801,-0.60101 2e-5,-5.5e-4 -3e-5,-10e-4 0,-0.002 0.0196,-0.35359 0.0334,-0.8587 0.0408,-1.50326 l 0.0207,-1.79781 c 0.007,-0.0741 0.0137,-0.11758 0.0212,-0.11007 0.0337,0.0337 0.58076,0.9643 1.21594,2.06756 l 1.15496,2.00607 0.17312,0.01 c 0.0979,0.0178 0.23757,0.0306 0.38137,0.031 0.2763,9e-4 0.37224,-0.0167 0.43564,-0.11264 0.008,-0.009 0.018,-0.0144 0.0253,-0.0243 0.0826,-0.113 0.1085,-0.77747 0.1085,-2.79312 0,-0.73438 -9e-4,-1.27865 -0.009,-1.68931 -8e-5,-0.003 5e-5,-0.005 0,-0.008 -0.008,-0.49837 -0.0229,-0.85865 -0.0445,-0.93895 -0.0124,-0.0463 -0.0376,-0.0855 -0.0687,-0.12041 -0.0673,-0.14502 -0.1711,-0.15349 -0.33332,-0.15349 z m -8.81756,0.003 c -0.14025,5.8e-4 -0.2808,0.0288 -0.38446,0.0842 -5.6e-4,2.9e-4 -9.8e-4,7.1e-4 -0.002,0.001 l -0.11989,0.0424 -0.002,0.22013 c -0.0377,0.29356 -0.0408,0.94753 -0.0408,2.52336 0,0.75401 0.006,1.45002 0.016,1.96681 0.003,0.52263 0.0114,0.86452 0.0227,0.894 0.0127,0.0329 0.0596,0.0576 0.123,0.0749 0.0126,0.004 0.0288,0.007 0.0439,0.01 0.14343,0.0286 0.34298,0.025 0.47902,-0.0114 l 0.11938,-0.009 5.3e-4,-0.0506 c 0.004,-0.005 0.0129,-0.008 0.016,-0.0129 0.0376,-0.0582 0.0878,-0.99015 0.1111,-2.07068 l 0.0403,-1.88773 c 0.0957,0.13293 0.37121,0.58809 0.70538,1.15187 l 0.34883,0.60875 c 0.57983,1.01267 0.89479,1.57313 1.10844,1.89394 l 0.21238,0.3674 h 0.11473 c 0.11615,0.0614 0.22727,0.035 0.42066,0.0248 l 0.47799,-0.0248 0.003,-0.39791 c 0,0 0,-5e-4 0,-5e-4 0.041,-0.48379 0.045,-2.00176 0.0258,-3.30626 l 0.0155,-2.0066 -0.21238,-0.0537 c -0.11705,-0.0294 -0.30837,-0.0292 -0.42479,0 l -0.21134,0.0532 v 0.0104 h -5.3e-4 v 1.28106 c -0.008,0.28728 -0.0149,0.6106 -0.0191,0.99787 l -0.0155,1.40973 c -0.0118,0.20746 -0.025,0.35711 -0.0403,0.36018 -0.043,-0.004 -0.60222,-0.91546 -1.24593,-2.03036 -0.43259,-0.74928 -0.68148,-1.16962 -0.8728,-1.47225 -0.0363,-0.0589 -0.0734,-0.11798 -0.10285,-0.16383 -0.0465,-0.0697 -0.0987,-0.14883 -0.13538,-0.19637 -0.08,-0.10676 -0.14037,-0.17167 -0.19328,-0.19998 -0.0144,-0.008 -0.0312,-0.0135 -0.047,-0.0202 -0.008,-0.004 -0.0173,-0.008 -0.0258,-0.0114 -0.0912,-0.0333 -0.20002,-0.0501 -0.30954,-0.0496 z m 18.58958,5.3e-4 c -0.16492,0.003 -0.33505,0.0318 -0.43202,0.0837 -9.2e-4,4.8e-4 -0.002,0.001 -0.003,0.002 l -0.11885,0.0419 -0.002,0.22013 c -0.0376,0.29356 -0.0408,0.94803 -0.0408,2.52386 0,1.48471 0.0234,2.75921 0.0517,2.83292 l -5e-4,5e-4 c 0.0418,0.10896 0.30281,0.15217 0.51778,0.12558 0.0944,-0.009 0.17463,-0.0329 0.2217,-0.0713 0.0157,-0.0106 0.0333,-0.0203 0.0439,-0.0331 0.0607,-0.0731 0.10147,-0.80203 0.11628,-2.07894 l 0.0227,-1.9663 1.19063,2.05777 1.19062,2.05774 h 0.0134 l 0.0294,0.0501 0.48162,-0.0253 0.48112,-0.0248 0.003,-0.38497 c 0.0431,-0.58713 0.0459,-2.08002 0.0258,-3.34555 -8e-5,-0.005 8e-5,-0.01 0,-0.015 l 0.0114,-1.42783 0.004,-0.52813 v -0.01 l -0.21291,-0.0537 c -0.11702,-0.0294 -0.30787,-0.0292 -0.42426,0 l -0.21188,0.0532 v 1.55858 c -7.9e-4,0.19172 -0.002,0.33118 -0.003,0.57878 -4.8e-4,0.37301 -0.003,0.65265 -0.005,0.90278 -0.007,0.43434 -0.0198,0.75819 -0.0367,0.92345 -0.0156,0.0968 -0.0371,0.11404 -0.0661,0.0816 -0.0388,-0.0537 -0.15566,-0.24336 -0.35915,-0.586 -0.22217,-0.37409 -0.51779,-0.87873 -0.83354,-1.42419 -0.0413,-0.0714 -0.0695,-0.11632 -0.11007,-0.18606 -0.32091,-0.55351 -0.53686,-0.91665 -0.70435,-1.18803 -0.24,-0.39312 -0.41074,-0.65858 -0.44132,-0.678 -0.0763,-0.0484 -0.23609,-0.0705 -0.401,-0.0672 z m -22.08186,10e-4 c -0.086,0.004 -0.17143,0.0206 -0.24805,0.047 -0.12967,0.0243 -0.24262,0.0584 -0.27234,0.10647 -0.0294,0.0476 -0.49096,1.25537 -1.02526,2.68407 -0.84711,2.2652 -0.98157,2.56923 -1.05058,2.37712 l -0.0791,-0.22016 -1.23301,-0.0232 -1.23248,-0.0233 h -5e-4 l -0.0228,-2.38953 c -0.0127,-1.349 -0.0205,-1.92728 -0.0579,-2.20194 l -0.004,-0.23045 -0.12608,-0.0439 c -0.004,-0.002 -0.007,-0.005 -0.0114,-0.008 -0.0368,-0.0197 -0.0906,-0.033 -0.14934,-0.0424 -0.1199,-0.0269 -0.27537,-0.0312 -0.3788,-0.005 l -0.22376,0.0563 v 0.004 2.79 0.0264 0.002 c 1.9e-4,0.70469 0.006,1.36292 0.0155,1.85261 7.4e-4,0.0421 2.6e-4,0.11401 10e-4,0.15399 0.0102,0.52131 0.0248,0.85264 0.0403,0.86815 0.006,0.006 0.0242,0.0119 0.0532,0.0171 0.0871,0.0156 0.27019,0.0266 0.50747,0.0336 0.63278,0.0185 1.65283,0.008 2.27634,-0.0238 0.31176,-0.0159 0.52438,-0.0372 0.54002,-0.0625 0.041,-0.0663 0.0825,-0.0663 0.14883,0 0.0792,0.0792 0.36964,0.1048 0.59687,0.0811 0.0909,-0.009 0.17179,-0.0267 0.22479,-0.0517 0.0265,-0.0125 0.0459,-0.0267 0.0563,-0.0429 5e-5,-8e-5 4.7e-4,-4.5e-4 5e-4,-5.3e-4 0.0377,-0.0582 0.18412,-0.41037 0.32507,-0.78288 l 0.2558,-0.67696 1.06399,-0.0238 1.06402,-0.0238 0.28991,0.78547 0.2899,0.7855 h 10e-4 v 5e-4 l 0.40103,0.0258 c 0.30523,0.0197 0.41379,-0.006 0.45321,-0.10903 0.002,-0.005 5.5e-4,-0.0192 5e-4,-0.03 0.003,-0.008 0.0106,-0.0146 0.0124,-0.0243 0.0145,-0.0753 -0.16899,-0.66561 -0.40722,-1.31207 -0.41344,-1.12191 -0.69847,-1.89195 -0.92501,-2.49647 -0.0188,-0.0514 -0.041,-0.11195 -0.0589,-0.16071 -0.091,-0.2485 -0.18073,-0.47795 -0.26664,-0.69197 -0.22834,-0.58338 -0.33975,-0.82029 -0.41238,-0.88987 -10e-4,-0.001 -0.004,-0.005 -0.005,-0.006 -0.004,-0.003 -0.009,-0.005 -0.0134,-0.008 -0.0116,-0.009 -0.0233,-0.02 -0.0351,-0.0264 -0.008,-0.004 -0.0209,-0.007 -0.0305,-0.0103 -0.0188,-0.008 -0.0393,-0.0147 -0.06,-0.0212 -1.6e-4,-5e-5 -3.7e-4,6e-5 -5.3e-4,0 -0.0868,-0.0273 -0.18669,-0.0402 -0.28834,-0.0351 z m 14.21722,0.005 c -0.0986,-0.003 -0.18976,0.0164 -0.26664,0.0512 l -0.16899,0.0315 v 0.1111 c -0.0131,0.0222 -0.0242,0.0453 -0.031,0.0708 -0.0875,0.32663 -0.0603,5.11648 0.0305,5.35522 0.0191,0.0502 0.0359,0.0892 0.0563,0.11885 1e-4,1.6e-4 4.2e-4,3.7e-4 5.3e-4,5.3e-4 10e-4,0.006 0.002,0.0394 0.004,0.0408 h 5e-4 c 0.0147,0.0148 0.0654,0.0252 0.1323,0.032 0.0658,0.0118 0.15065,0.0133 0.29352,0.004 l 0.016,-0.001 0.38656,-0.0248 0.0222,-2.8117 c 0.0137,-1.72458 0.0182,-2.38905 -0.0222,-2.66962 v -0.18756 l -0.12404,-0.0434 c -0.004,-0.002 -0.007,-0.005 -0.0109,-0.007 -0.0347,-0.0186 -0.0837,-0.0312 -0.13695,-0.0408 -0.0612,-0.017 -0.12242,-0.0282 -0.18137,-0.03 z m 3.92483,0.83715 c 0.13057,0 0.25128,0.014 0.3669,0.0357 0.31321,0.0686 0.60097,0.22395 0.81804,0.45733 0.0865,0.0994 0.16388,0.21223 0.23098,0.34211 0.0437,0.0845 0.0763,0.15502 0.10544,0.22479 0.0715,0.20344 0.0964,0.4341 0.11316,0.92863 0.005,0.15243 0.007,0.2603 0.008,0.36793 -0.0126,0.25054 -0.0387,0.47483 -0.0692,0.61442 -0.034,0.0979 -0.0805,0.19759 -0.14883,0.33073 -0.13814,0.26905 -0.36033,0.54615 -0.5266,0.6563 -0.0466,0.0309 -0.0918,0.0548 -0.13745,0.077 -0.0277,0.0124 -0.056,0.0238 -0.0847,0.0346 -0.15433,0.0574 -0.33073,0.0791 -0.62579,0.0791 -0.71244,0 -1.06862,-0.18256 -1.40303,-0.71932 -0.0515,-0.0827 -0.0897,-0.15073 -0.12298,-0.2186 -0.054,-0.14261 -0.0948,-0.30252 -0.12351,-0.47799 -0.0156,-0.14412 -0.0272,-0.31335 -0.0362,-0.56433 -0.006,-0.16981 -0.008,-0.29308 -0.009,-0.40823 0.0124,-0.41055 0.0611,-0.5901 0.22429,-0.91313 0.0422,-0.08 0.0829,-0.14954 0.12401,-0.21188 0.0654,-0.0961 0.13954,-0.17862 0.2191,-0.2527 0.0775,-0.0687 0.1614,-0.12983 0.26667,-0.1855 0.14161,-0.0749 0.28959,-0.12819 0.43924,-0.16124 0.0434,-0.008 0.0857,-0.0176 0.13126,-0.0227 0.0771,-0.009 0.15748,-0.0129 0.24082,-0.0129 z m -18.16221,0.53072 c 0.11874,0.12372 0.75078,1.8591 0.70331,1.94562 -0.0188,0.0342 -0.32713,0.0614 -0.68678,0.0625 -0.17894,-5.8e-4 -0.33266,-0.008 -0.46352,-0.0181 -0.001,-1.6e-4 -0.003,1.3e-4 -0.005,0 -0.0699,-0.008 -0.12374,-0.018 -0.15864,-0.031 -0.008,-0.004 -0.024,-0.005 -0.0305,-0.009 -0.003,-0.002 -0.005,-0.004 -0.007,-0.006 -0.008,-0.006 -0.0163,-0.0127 -0.0207,-0.0201 -0.005,-0.008 -0.006,-0.0166 -0.007,-0.0258 1.9e-4,-0.006 0.005,-0.0232 0.007,-0.0315 0.0109,-0.089 0.13269,-0.46511 0.28835,-0.88315 0.079,-0.21207 0.1493,-0.41357 0.20259,-0.57465 0.0822,-0.21212 0.15012,-0.3747 0.17775,-0.40876 z"
       style="fill:none;stroke:#0000ff;stroke-width:0.08466666;stroke-opacity:1" />
    <path
       style="fill:none;fill-opacity:1;stroke:#ff0000;stroke-width:0.05235547;stroke-miterlimit:4;stroke-dasharray:none;stroke-opacity:1"
       d="m 369.64558,-162.10265 v 5.94747 h 3.01067 v -2.9368 h 2.92592 v 2.9368 h 3.01067 v -5.94747 z"
       id="rect889"
       inkscape:connector-curvature="0" />
    <path
       id="path899"
       d="m 382.5331,-162.2346 v 5.94747 h 3.01067 v -2.9368 h 2.92592 v 2.9368 h 3.01067 v -5.94747 z"
       style="fill:none;fill-opacity:1;stroke:#ff0000;stroke-width:0.05235547;stroke-miterlimit:4;stroke-dasharray:none;stroke-opacity:1"
       inkscape:connector-curvature="0" />
    <path
       inkscape:connector-curvature="0"
       style="fill:none;fill-opacity:1;stroke:#ff0000;stroke-width:0.05235547;stroke-miterlimit:4;stroke-dasharray:none;stroke-opacity:1"
       d="m 369.02979,-152.7339 v 5.94747 h 3.01067 v -2.9368 h 2.92592 v 2.9368 h 3.01067 v -5.94747 z"
       id="path901" />
    <path
       id="path903"
       d="m 382.09325,-152.7339 v 5.94747 h 3.01067 v -2.9368 h 2.92592 v 2.9368 h 3.01067 v -5.94747 z"
       style="fill:none;fill-opacity:1;stroke:#ff0000;stroke-width:0.05235547;stroke-miterlimit:4;stroke-dasharray:none;stroke-opacity:1"
       inkscape:connector-curvature="0" />
    <path
       inkscape:connector-curvature="0"
       style="fill:none;fill-opacity:1;stroke:#ff0000;stroke-width:0.05235547;stroke-miterlimit:4;stroke-dasharray:none;stroke-opacity:1"
       d="m 367.49032,-141.82569 v 5.94747 h 3.01067 v -2.9368 h 2.92592 v 2.9368 h 3.01067 v -5.94747 z"
       id="path905" />
    <path
       id="path907"
       d="m 380.86168,-142.35351 v 5.94747 h 3.01067 v -2.9368 h 2.92592 v 2.9368 h 3.01067 v -5.94747 z"
       style="fill:none;fill-opacity:1;stroke:#ff0000;stroke-width:0.05235547;stroke-miterlimit:4;stroke-dasharray:none;stroke-opacity:1"
       inkscape:connector-curvature="0" />
    <path
       inkscape:connector-curvature="0"
       style="fill:none;fill-opacity:1;stroke:#ff0000;stroke-width:0.05235547;stroke-miterlimit:4;stroke-dasharray:none;stroke-opacity:1"
       d="m 369.95347,-174.02251 v 5.94747 h 3.01067 v -2.9368 h 2.92592 v 2.9368 h 3.01067 v -5.94747 z"
       id="path909" />
    <path
       id="path911"
       d="m 385.08421,-173.84657 v 5.94747 h 3.01067 v -2.9368 h 2.92592 v 2.9368 h 3.01067 v -5.94747 z"
       style="fill:none;fill-opacity:1;stroke:#ff0000;stroke-width:0.05235547;stroke-miterlimit:4;stroke-dasharray:none;stroke-opacity:1"
       inkscape:connector-curvature="0" />
    <path
       id="path863"
       d="m 396.94096,-174.02251 v 5.94747 h 3.01067 v -2.9368 h 2.92592 v 2.9368 h 3.01067 v -5.94747 z"
       style="fill:none;fill-opacity:1;stroke:#ff0000;stroke-width:0.05235547;stroke-miterlimit:4;stroke-dasharray:none;stroke-opacity:1"
       inkscape:connector-curvature="0" />
    <path
       inkscape:connector-curvature="0"
       style="fill:none;fill-opacity:1;stroke:#ff0000;stroke-width:0.05235547;stroke-miterlimit:4;stroke-dasharray:none;stroke-opacity:1"
       d="m 396.41182,-163.43917 v 5.94747 h 3.01067 v -2.9368 h 2.92592 v 2.9368 h 3.01067 v -5.94747 z"
       id="path865" />
    <path
       id="path867"
       d="m 394.82431,-154.97245 v 5.94747 h 3.01067 v -2.9368 h 2.92592 v 2.9368 h 3.01067 v -5.94747 z"
       style="fill:none;fill-opacity:1;stroke:#ff0000;stroke-width:0.05235547;stroke-miterlimit:4;stroke-dasharray:none;stroke-opacity:1"
       inkscape:connector-curvature="0" />
    <path
       inkscape:connector-curvature="0"
       style="fill:none;fill-opacity:1;stroke:#ff0000;stroke-width:0.05235547;stroke-miterlimit:4;stroke-dasharray:none;stroke-opacity:1"
       d="m 408.05347,-174.02251 v 5.94747 h 3.01067 v -2.9368 h 2.92592 v 2.9368 h 3.01067 v -5.94747 z"
       id="path869" />
    <path
       style="fill:none;fill-opacity:1;stroke:#ff0000;stroke-width:0.03294303;stroke-miterlimit:4;stroke-dasharray:none;stroke-opacity:1"
       d="m 77.379338,-521.98337 v 2.99982 h -2.999817 v 2.96674 h 2.999817 v 3.00034 h 2.967261 v -3.00034 h 2.999817 v -2.96674 h -2.999817 v -2.99982 z"
       id="rect871"
       inkscape:connector-curvature="0" />
    <path
       id="path882"
       d="m 77.379338,-621.98337 v 2.99982 h -2.999817 v 2.96675 h 2.999817 v 3.00033 h 2.96726 v -3.00033 h 2.999817 v -2.96675 h -2.999817 v -2.99982 z"
       style="fill:none;fill-opacity:1;stroke:#ff0000;stroke-width:0.03294303;stroke-miterlimit:4;stroke-dasharray:none;stroke-opacity:1"
       inkscape:connector-curvature="0" />
    <path
       style="fill:none;fill-opacity:1;stroke:#ff0000;stroke-width:0.1901558;stroke-miterlimit:4;stroke-dasharray:none;stroke-opacity:1"
       d="m 55.124282,-257.90469 v 149.80946 h 69.809678 v -149.80946 z m 8.177278,20.92121 h 2.96726 v 2.99982 h 2.999817 v 2.96672 H 66.26882 v 3.00035 h -2.96726 v -3.00035 h -2.999816 v -2.96672 h 2.999816 z m 47.62499,0 h 2.96726 v 2.99982 h 2.99981 v 2.96672 h -2.99981 v 3.00035 h -2.96726 v -3.00035 h -2.99982 v -2.96672 h 2.99982 z m -47.62499,100.00009 h 2.96726 v 2.99982 h 2.999817 v 2.96674 H 66.26882 v 3.00033 h -2.96726 v -3.00033 h -2.999816 v -2.96674 h 2.999816 z m 47.62499,0 h 2.96726 v 2.99982 h 2.99981 v 2.96674 h -2.99981 v 3.00033 h -2.96726 v -3.00033 h -2.99982 v -2.96674 h 2.99982 z"
       id="rect884"
       inkscape:connector-curvature="0" />
    <path
       style="fill:none;fill-opacity:1;stroke:#ff0000;stroke-width:0.1901558;stroke-miterlimit:4;stroke-dasharray:none;stroke-opacity:1"
       d="M 55.124282,-92.904946 V 56.90502 H 124.93396 V -92.904946 Z m 55.802268,20.921715 h 2.96726 v 2.99982 h 2.99981 v 2.966746 h -2.99981 v 3.000322 h -2.96726 v -3.000322 h -2.99982 v -2.966746 h 2.99982 z m 0,100.00009 h 2.96726 v 2.999819 h 2.99981 v 2.966747 h -2.99981 v 3.000348 h -2.96726 v -3.000348 h -2.99982 v -2.966747 h 2.99982 z"
       id="rect886"
       inkscape:connector-curvature="0" />
    <path
       id="path904"
       d="m 367.49032,-133.88817 v 5.94747 h 3.01067 v -2.9368 h 2.92592 v 2.9368 h 3.01067 v -5.94747 z"
       style="fill:none;fill-opacity:1;stroke:#ff0000;stroke-width:0.05235547;stroke-miterlimit:4;stroke-dasharray:none;stroke-opacity:1"
       inkscape:connector-curvature="0" />
    <path
       inkscape:connector-curvature="0"
       style="fill:none;fill-opacity:1;stroke:#ff0000;stroke-width:0.05235547;stroke-miterlimit:4;stroke-dasharray:none;stroke-opacity:1"
       d="m 380.86168,-134.41599 v 5.94747 h 3.01067 v -2.9368 h 2.92592 v 2.9368 h 3.01067 v -5.94747 z"
       id="path908" />
    <path
       inkscape:connector-curvature="0"
       style="fill:none;fill-opacity:1;stroke:#ff0000;stroke-width:0.05235547;stroke-miterlimit:4;stroke-dasharray:none;stroke-opacity:1"
       d="m 364.84447,-124.89234 v 5.94747 h 3.01067 v -2.9368 h 2.92592 v 2.9368 h 3.01067 v -5.94747 z"
       id="path910" />
    <path
       id="path912"
       d="m 378.21583,-125.42016 v 5.94747 h 3.01067 v -2.9368 h 2.92592 v 2.9368 h 3.01067 v -5.94747 z"
       style="fill:none;fill-opacity:1;stroke:#ff0000;stroke-width:0.05235547;stroke-miterlimit:4;stroke-dasharray:none;stroke-opacity:1"
       inkscape:connector-curvature="0" />
  </g>
</svg>
